<?xml version="1.0" standalone="no"?>
<!DOCTYPE svg PUBLIC "-//W3C//DTD SVG 1.1//EN" "http://www.w3.org/Graphics/SVG/1.1/DTD/svg11.dtd" >
<svg xmlns="http://www.w3.org/2000/svg">
<metadata>
Created by FontForge 20120731 at Mon Aug  8 00:37:28 2016
 By admin
</metadata>
<defs>
<font id="iconfont" horiz-adv-x="1024" >
  <font-face 
    font-family="iconfont"
    font-weight="500"
    font-stretch="normal"
    units-per-em="1024"
    panose-1="2 0 6 3 0 0 0 0 0 0"
    ascent="896"
    descent="-128"
    x-height="792"
    bbox="-0.129944 -136 1344 896"
    underline-thickness="50"
    underline-position="-100"
    unicode-range="U+0078-E655"
  />
<missing-glyph horiz-adv-x="374" 
d="M34 0v682h272v-682h-272zM68 34h204v614h-204v-614z" />
    <glyph glyph-name=".notdef" horiz-adv-x="374" 
d="M34 0v682h272v-682h-272zM68 34h204v614h-204v-614z" />
    <glyph glyph-name=".null" horiz-adv-x="0" 
 />
    <glyph glyph-name="nonmarkingreturn" horiz-adv-x="341" 
 />
    <glyph glyph-name="x" unicode="x" horiz-adv-x="1001" 
d="M281 543q-27 -1 -53 -1h-83q-18 0 -36.5 -6t-32.5 -18.5t-23 -32t-9 -45.5v-76h912v41q0 16 -0.5 30t-0.5 18q0 13 -5 29t-17 29.5t-31.5 22.5t-49.5 9h-133v-97h-438v97zM955 310v-52q0 -23 0.5 -52t0.5 -58t-10.5 -47.5t-26 -30t-33 -16t-31.5 -4.5q-14 -1 -29.5 -0.5
t-29.5 0.5h-32l-45 128h-439l-44 -128h-29h-34q-20 0 -45 1q-25 0 -41 9.5t-25.5 23t-13.5 29.5t-4 30v167h911zM163 247q-12 0 -21 -8.5t-9 -21.5t9 -21.5t21 -8.5q13 0 22 8.5t9 21.5t-9 21.5t-22 8.5zM316 123q-8 -26 -14 -48q-5 -19 -10.5 -37t-7.5 -25t-3 -15t1 -14.5
t9.5 -10.5t21.5 -4h37h67h81h80h64h36q23 0 34 12t2 38q-5 13 -9.5 30.5t-9.5 34.5q-5 19 -11 39h-368zM336 498v228q0 11 2.5 23t10 21.5t20.5 15.5t34 6h188q31 0 51.5 -14.5t20.5 -52.5v-227h-327z" />
    <glyph glyph-name="uniE600" unicode="&#xe600;" horiz-adv-x="1000" 
d="M862 150h-705h-6q-16 0 -23.5 1t-14.5 6t-7 16l14 610v0q0 26 55 50q29 15 46 16q121 36 295 36q165 0 274.5 -31.5t109.5 -70.5v0l7 -357q1 0 1.5 -3t0.5 -4t-1 -3v-3l5 -240q0 -15 -10.5 -19t-33.5 -4h-7zM701.5 211q32.5 0 55 22.5t22.5 55t-22.5 55.5t-55 23
t-55.5 -23t-23 -55.5t23 -55t55.5 -22.5zM315.5 211q32.5 0 55.5 22.5t23 55t-23 55.5t-55.5 23t-55.5 -23t-23 -55.5t23 -55t55.5 -22.5zM773 716q0 7 -3 14q-2 6 -7 12h-1q-4 5 -7 8q-16 14 -41 23.5t-45 9.5h-282q-28 0 -71 -15q-68 -16 -68 -52v-224q0 -14 7 -28h511
q7 14 7 28v224zM303 66l-13 -23h453v1l-20 25l165 -8l95 -156h-156l-43 71h-535l-43 -71h-156l85 142z" />
    <glyph glyph-name="uniE601" unicode="&#xe601;" 
d="M442 320h-46v-39h29q18 0 17 17v22zM414 210h39v-56h-39v56zM396 379h46v-36h-46v36zM432 538h-40v-45q20 0 40 4v41zM392 674h40v-42h-40v42zM392 606h40v-42h-40v42zM495 210h39v-56h-39v56zM893 756l-380 69l-372 -69l-33 -5v-450q0 -41 21 -81t55 -77.5t77 -71
t88 -60t86.5 -44t73.5 -23.5l9 -2l10 2q31 6 71.5 23.5t84.5 43.5q43 27 85 60.5t75 71t53 77.5t20 81v450zM331 489l20 1v184h-17v27h155v-27h-17v-172q11 2 25 4v-25q-6 -3 -7 -3q-7 -1 -18 -3v-56h-40v48q-35 -6 -101 -9v31zM437 258h-83v146h130v-104q2 -43 -47 -42z
M694 129h-359v25h32v83h294v-83h33v-25zM512 319v87h163v-118q2 -42 -48 -40h-35v22h17q21 -2 19 15v9h-73q-8 -35 -65 -52v23q24 16 22 54zM694 554h-81q6 -65 81 -108v-27q-78 31 -107 80q-31 -50 -104 -80v26q73 45 79 109h-75v27h77v68h-67v27h25q-8 14 -13 38h44
q5 -25 14 -38h41q9 17 12 37h46q-3 -17 -13 -37h30v-27h-72v-68h83v-27zM628 339h-69v-16v-9h69v25zM577 210h39v-56h-39v56zM559 383h69v-24h-69v24z" />
    <glyph glyph-name="uniE602" unicode="&#xe602;" 
d="M516 896q-105 0 -200.5 -41t-164.5 -110t-110 -164.5t-41 -200.5t41 -200.5t110 -164.5t164.5 -110t200.5 -41t200.5 41t164.5 110t110 164.5t41 200.5t-41 200.5t-110 164.5t-164.5 110t-200.5 41zM516.5 -84q-94.5 0 -180.5 36.5t-148.5 98.5t-99 148t-36.5 180.5
t36.5 180.5t99 148.5t148.5 99t180.5 36.5t180.5 -36.5t148 -99t98.5 -148.5t36.5 -180.5t-36.5 -180.5t-98.5 -148t-148 -98.5t-180.5 -36.5zM632 257q-17 2 -29 8.5t-18 15.5t-9 19t-3 20t0.5 17.5t0.5 12.5l1 4q-1 0 -1 4t1 10l1 5q20 11 34.5 34.5t17.5 41.5l4 18v81
q-1 4 -2 10.5t-7 22.5t-15 28.5t-25.5 22.5t-37.5 10l-47 22q-17 0 -31.5 -6.5t-24 -16.5t-16.5 -22.5t-11 -25t-6.5 -22.5t-3.5 -17v-6v-74q-1 -22 14 -47.5t29 -40.5l15 -15l1 -18q-1 0 0.5 -8.5t0.5 -22t-5.5 -27t-18.5 -24.5t-37 -14q-77 -11 -142 -71q-2 -2 -3 -2
q-12 -15 -18 -37t-6 -36v-15h563q2 50 -19 83q-11 19 -52 44.5t-95 33.5z" />
    <glyph glyph-name="uniE603" unicode="&#xe603;" 
d="M656 -75h-288q-47 0 -80.5 33.5t-33.5 80.5v690q0 47 33.5 80.5t80.5 33.5h288q47 0 80.5 -33.5t33.5 -80.5v-690q0 -47 -33.5 -80.5t-80.5 -33.5zM713 729q0 23 -17 40t-40 17h-288q-23 0 -40 -17t-17 -40v-29h402v29zM713 642h-402v-373h402v373zM713 212h-402v-173
q0 -23 17 -40t40 -17h288q23 0 40 17t17 40v173zM512 39q-24 0 -40.5 17t-16.5 41t16.5 40.5t40.5 16.5t40.5 -16.5t16.5 -40.5t-16.5 -41t-40.5 -17z" />
    <glyph glyph-name="uniE604" unicode="&#xe604;" 
d="M938 773q-23 22 -53 22h-746q-30 0 -53 -22q-22 -22 -22 -53v-449q0 -30 22 -52t53 -22h74v-224l227 224h445q31 0 53 22t22 52v449q0 31 -22 53zM357 403q-30 0 -49.5 21t-19.5 53t20 53t50.5 21t49.5 -21t19 -53t-19 -53t-51 -21zM581 403q-30 0 -49.5 21t-19.5 53
t20 53t50.5 21t49.5 -20.5t19 -53.5q0 -32 -19 -53t-51 -21zM806 403q-31 0 -50 21t-19 53t19.5 53t50.5 21q30 0 49.5 -21t19.5 -53t-19.5 -53t-50.5 -21z" />
    <glyph glyph-name="uniE605" unicode="&#xe605;" 
d="M-53 949zM789 447v163q0 55 -21.5 105t-58 86.5t-86 58t-104.5 21.5h-10q-113 0 -192.5 -79.5t-79.5 -191.5v-163h-95v-559h745v559h-98zM599 -10h-169l41 181q-41 24 -41 73q0 34 25 59t60 25t59.5 -25t24.5 -59q0 -49 -42 -73zM653 447h-280v163q0 55 39.5 95t96.5 40
h10q27 0 52 -10.5t43 -29t28.5 -43t10.5 -52.5v-163z" />
    <glyph glyph-name="uniE606" unicode="&#xe606;" 
d="M368 208q0 -13 9.5 -22.5t22.5 -9.5h224q13 0 22.5 9.5t9.5 22.5v192h-288v-192zM512 832q-91 0 -174 -35.5t-143 -95.5t-95.5 -143t-35.5 -174t35.5 -174t95.5 -143t143 -95.5t174 -35.5t174 35.5t143 95.5t95.5 143t35.5 174t-35.5 174t-95.5 143t-143 95.5t-174 35.5z
M688 208q0 -26 -19 -45t-45 -19h-224q-26 0 -45 19t-19 45v224h32v48q0 60 42 102t102 42t102 -42t42 -102h-32q0 46 -33 79t-79 33t-79 -33t-33 -79v-48h288v-224z" />
    <glyph glyph-name="uniE607" unicode="&#xe607;" 
d="M495 872h31q-1 -11 0.5 -14.5t7.5 -7.5q122 -97 163 -256h-185q-152 0 -184 1q40 146 139 235q2 2 9.5 7.5t13 10t5.5 7.5q1 4 0.5 10t-0.5 7zM321 566h383q18 -88 16 -141q-3 -51 -20 -134q-24 -108 -64 -245h-244q-33 94 -66 243q-37 166 -6 274q0 2 1 3zM438 449
q-12 -40 11 -71.5t64 -31.5q35 1 58 26q16 18 18.5 42.5t-7 45t-30.5 33t-47 10.5q-52 -6 -67 -54zM145 264v30q11 108 125 141q15 -169 70 -327q-19 -26 -27 -39.5t-17 -41t-8 -55.5q-131 104 -143 292zM756 435q76 -23 106 -77q30 -55 11 -157q-13 -69 -50 -132
q-41 -67 -85 -96q2 55 -36 111q-2 3 -6.5 8.5t-7.5 9.5t-3 6q0 3 2 10t5.5 15t5.5 12q44 145 57 288zM425 16h174q-5 -10 -17 -30t-17 -31q-6 4 -14.5 13t-12.5 12q-4 -14 -13 -42t-13 -42q-7 16 -19 47.5t-14 36.5q-4 -8 -12 -23.5t-10 -19.5q-8 19 -32 79z" />
    <glyph glyph-name="uniE608" unicode="&#xe608;" 
d="M1018 384.5q0 -103.5 -40.5 -197.5t-108.5 -162t-162 -108.5t-197.5 -40.5t-197.5 40.5t-162 108.5t-108.5 162t-40.5 197.5t40.5 197.5t108.5 162t162 108.5t197.5 40.5t197.5 -40.5t162 -108.5t108.5 -162t40.5 -197.5zM279 440q-14 10 -32 27q-22 -35 -61 -87l32 -27z
M240 469q18 17 32 30q-22 22 -48 45l-29 -25q26 -26 45 -50zM228 226h46v16h156v-15h45v129h-247v-130zM329 422.5q-26 -16.5 -75 -24.5q15 -24 23 -40q84 22 106 70q29 -54 104 -73q9 21 19 42q-85 13 -105 66q1 6 3 13h-42q-7 -37 -33 -53.5zM348 519l8 20l-44 2
q-16 -41 -49 -80q18 -10 35 -24q17 23 30 45h120q-7 -11 -19 -33l40 -13q12 25 26 50v33h-147zM430 282h-156v33h156v-33zM586 302v133h-69v-41h29v-107q0 -16 -10 -26l23 -32q24 23 57 46q-3 24 -3 49zM525 517q21 -28 38 -60q23 13 38 22q-19 30 -41 58zM585 447
q12 -13 28 -32q4 5 9 10v-149h38v17h88v150h-111q8 11 16 23h123v-47q-1 -119 -4 -128t-9 -13.5t-17 -4.5q-25 0 -57 3q5 -22 9 -45q52 -1 71.5 1.5t33 19t14.5 49.5l2 85l1 122h-143q6 13 12 27q-23 4 -44 7q-19 -54 -60 -95zM710 385h-50v23h50v-23zM660 328v23h50v-23
h-50z" />
    <glyph glyph-name="uniE609" unicode="&#xe609;" 
d="M512 280q-127 0 -217.5 90.5t-90.5 217.5t90.5 217.5t217.5 90.5t217.5 -90.5t90.5 -217.5t-90.5 -217.5t-217.5 -90.5zM512 824q-98 0 -167 -69t-69 -167t69 -167t167 -69t167 69t69 167t-69 167t-167 69zM920 -128q-15 0 -25.5 10.5t-10.5 25.5q0 101 -50 186.5
t-135.5 135.5t-186.5 50t-186.5 -50t-135.5 -135.5t-50 -186.5q0 -15 -10.5 -25.5t-25.5 -10.5t-25.5 10.5t-10.5 25.5q0 90 35 172.5t94.5 142t142 94.5t172.5 35t172.5 -35t142 -94.5t94.5 -142t35 -172.5q0 -15 -10.5 -25.5t-25.5 -10.5z" />
    <glyph glyph-name="uniE60A" unicode="&#xe60a;" 
d="M951 889h-878q-27 0 -46.5 -19.5t-19.5 -46.5v-878q0 -27 19.5 -46.5t46.5 -19.5h878q27 0 46.5 19.5t19.5 46.5v878q0 27 -19.5 46.5t-46.5 19.5zM638 302v-231h-253l1 230h-164l290 281l295 -278zM825 604h-626v93h626v-93z" />
    <glyph glyph-name="uniE60B" unicode="&#xe60b;" 
d="M761 721h-93l-105 -193q-42 -79 -52 -105h-2q-27 63 -156 298h-99l184 -316h-151v-69h177v-97h-177v-70h177v-140h87v140h171v70h-171v97h171v69h-146z" />
    <glyph glyph-name="uniE60C" unicode="&#xe60c;" horiz-adv-x="1344" 
d="M1260 256h-36l89 -159l-256 107v522q0 23 -29 49.5t-54 26.5h-532q6 36 33 65t61 29h713q39 0 67 -28t28 -67v-467q0 -38 -22 -58t-62 -20zM992 644v-514q0 -42 -30.5 -69.5t-74.5 -27.5h-496l-294 -158l47 158h-39q-45 0 -75 27.5t-30 69.5v514q0 43 30 67.5t75 24.5
h782q44 0 74.5 -25t30.5 -67zM768 608h-544q-13 0 -22.5 -9.5t-9.5 -22.5t9.5 -22.5t22.5 -9.5h544q13 0 22.5 9.5t9.5 22.5t-9.5 22.5t-22.5 9.5zM768 416h-544q-13 0 -22.5 -9.5t-9.5 -22.5t9.5 -22.5t22.5 -9.5h544q13 0 22.5 9.5t9.5 22.5t-9.5 22.5t-22.5 9.5zM768 224
h-544q-13 0 -22.5 -9.5t-9.5 -22.5t9.5 -22.5t22.5 -9.5h544q13 0 22.5 9.5t9.5 22.5t-9.5 22.5t-22.5 9.5z" />
    <glyph glyph-name="uniE60D" unicode="&#xe60d;" 
d="M868 73q0 -45 -32.5 -76.5t-77.5 -31.5h-569q-46 0 -78 31.5t-32 76.5v558q0 45 32 76t78 31h446q1 1 1.5 2t1.5 1l65 65h-514q-74 0 -126 -51.5t-52 -123.5v-558q0 -72 52 -123.5t126 -51.5h569q74 0 126 51.5t52 123.5v501l-68 -67v-434zM406 215l-80 -32l-41 40l33 78
l535 525l41 -39l-510 -500q-8 -8 0 -17q4 -3 9 -3t9 3l509 500l31 -30zM993 757l-122 120q-8 7 -18 7t-17 -7l-17 -17l-39 -38l-2 -2l-498 -489q-3 -3 -5 -7l-83 -202q-6 -14 5 -26q7 -7 17 -7q5 0 9 2l206 81q5 2 8 6l554 543l2 2q7 7 7 17t-7 17z" />
    <glyph glyph-name="uniE60E" unicode="&#xe60e;" 
d="M507.5 882q100.5 1 192.5 -37t159 -103.5t107 -157t41 -191.5q1 -128 -58.5 -237.5t-163.5 -178t-230 -82.5q-144 -16 -287 -2q-150 14 -213 43q-7 5 -7 7q62 10 103 33q21 14 18.5 35t-22.5 44q-59 66 -94 150.5t-36 177.5q-1 101 37.5 193t104 158.5t157 106.5t192 41z
M758 380.5q0 -34.5 24 -58.5t58.5 -24t58.5 24t24 58.5t-24 58.5t-58.5 24t-58.5 -24t-24 -58.5zM428 381q0 -35 25 -60t60 -25t59.5 25t24.5 60t-24.5 60t-59.5 25t-60 -25t-25 -60zM101 381.5q0 -34.5 24.5 -59t59.5 -24.5t59.5 24.5t24.5 59t-24.5 59.5t-59.5 25
t-59.5 -25t-24.5 -59.5z" />
    <glyph glyph-name="uniE60F" unicode="&#xe60f;" horiz-adv-x="1110" 
d="M172 245q-20 0 -35 14l-123 124q-14 14 -14 34t14 34.5t34.5 14.5t34.5 -15l89 -89l89 89q14 15 34 15t34 -14.5t14 -34.5t-14 -34l-123 -124q-14 -14 -34 -14zM617 -108q-116 0 -221 53t-174 147q-12 16 -9 36t19 32t36 9t32 -20q56 -76 139.5 -118t177.5 -42
q108 0 198.5 53t143.5 144t53 198t-53 198t-143.5 144t-198 53t-198.5 -53t-143.5 -144t-52.5 -198q0 -25 3 -49q2 -20 -10 -36t-32 -19q-20 -2 -36 10.5t-19 31.5q-3 31 -3 62q0 100 39 191t104.5 157t157 105t191 39t191 -39t157 -105t104.5 -157t39 -191t-39 -191
t-104.5 -157t-157 -105t-191.5 -39zM757 262h-194q-20 0 -46 26.5t-26 47.5v242q0 20 14 34.5t34.5 14.5t34.5 -14.5t14 -34.5v-219h169q21 0 35 -14t14 -34.5t-14 -34.5t-35 -14z" />
    <glyph glyph-name="uniE610" unicode="&#xe610;" 
d="M461 96h102v-41h-102v41zM720 757h-419q-13 0 -22 -9.5t-9 -23.5v-696q0 -14 9 -23.5t22 -9.5h419q13 0 22.5 9.5t9.5 23.5v696q0 14 -9.5 23.5t-22.5 9.5zM711 716v-51h-400v51h400zM311 624h400v-459h-400v459zM311 36v88h400v-88h-400zM613 415v41h-85l85 86h-58
l-50 -50l-50 50h-58l86 -86h-82v-41h86v-44h-86v-41h86v-104h41v104h85v41h-85v44h85z" />
    <glyph glyph-name="uniE611" unicode="&#xe611;" 
d="M488 -17q-238 16 -259 174q5 74 74 79q63 0 85 -95q26 -111 100 -121v327q-238 106 -232 269q5 185 232 222v58h37v-58q216 -21 237 -158q-5 -64 -74 -69q-52 0 -84 79q-27 85 -79 100v-269q285 -132 269 -290q-16 -222 -269 -248v-111h-37v111zM488 796
q-101 -21 -106 -111q-5 -85 106 -143v254zM525 20q121 26 126 142q6 95 -126 164v-306z" />
    <glyph glyph-name="uniE612" unicode="&#xe612;" 
d="M512 -23q-103 0 -190 50.5t-137.5 137.5t-50.5 189.5t50.5 190t137.5 138t190 50.5t190 -50.5t137.5 -138t50.5 -190t-50.5 -189.5t-137.5 -137.5t-190 -50.5zM512 685q-90 0 -166 -44t-120.5 -120t-44.5 -166t44.5 -166.5t120.5 -120.5t166 -44t166 44t120.5 120.5
t44.5 166.5t-44.5 166t-120.5 120t-166 44zM619 334l-181 -181q-7 -7 -16.5 -7t-16.5 7t-7 16.5t7 16.5l168 169l-168 168q-7 7 -7 16.5t7 16.5t16.5 7t16.5 -7l181 -181q8 -8 6 -20q3 -13 -6 -21z" />
    <glyph glyph-name="uniE613" unicode="&#xe613;" 
d="M289 780l41 -41q49 -49 98 -99q59 -60 119 -120l1 -1l1 -1l1 -1l1 -1l1 -1l1 -1l1 -1l1 -1l1 -1l1 -1l1 -1l1 -1l1 -1l1 -1l1 -1l1 -1l1 -1l1 -1l1 -1l1 -1l1 -1l1 -1l1 -1l1 -1l1 -1v-1l1 -1l1 -1l1 -1l1 -1l1 -1l1 -1l1 -1l1 -1l1 -1l1 -1l1 -1l1 -1l1 -1l1 -1l1 -1
l1 -1l1 -1l1 -1l1 -1l1 -1l1 -1l2 -1l1 -1l1 -1l1 -1l1 -1l1 -1l1 -1l1 -1l1 -1l1 -1l1 -1l1 -1l1 -1l1 -1l1 -1l1 -1l1 -1l1 -1l1 -1l1 -1l1 -1l1 -1l1 -1l1 -1l1 -1l1 -1l1 -1l1 -1l1 -1l1 -1l1 -1l1 -1l1 -1l1 -1l1 -1l1 -1l1 -1l1 -1l1 -1l1 -1l1 -1l1 -1l1 -1l1 -1
l1 -1l1 -1l1 -1l1 -1l1 -1l1 -1l1 -1l1 -1l1 -1l1 -1l1 -1l1 -1q5 -6 15 -16.5t18.5 -18.5t16.5 -16v0v34l-41 -41l-98 -99l-1 -1l-1 -1l-1 -1l-1 -1l-1 -1l-1 -1l-1 -1l-1 -1l-1 -1l-1 -1l-1 -1l-1 -1l-1 -1l-1 -1l-1 -1l-1 -1l-1 -1l-1 -1l-1 -1l-1 -1l-1 -1l-1 -1l-1 -1
l-1 -1l-1 -1l-1 -1l-1 -1l-1 -1l-1 -1l-1 -1l-1 -1l-1 -1l-1 -1l-1 -1l-1 -1l-1 -1l-1 -1l-1 -1l-1 -1l-1 -1l-1 -1l-1 -1l-1 -1l-1 -1l-1 -1l-1 -1l-1 -1l-1 -1l-1 -1l-1 -1l-1 -1l-1 -1l-1 -1l-1 -1l-1 -1l-1 -1l-1 -1l-1 -1l-1 -1l-1 -1l-1 -1l-2 -2l-1 -1l-1 -1l-1 -1
l-1 -1l-1 -1l-1 -1l-1 -1l-1 -1l-1 -1l-1 -1l-1 -1l-1 -1l-1 -1l-1 -1l-1 -1l-1 -1l-1 -1l-1 -1l-1 -1l-1 -1l-1 -1l-1 -1l-1 -1l-1 -1l-1 -1l-1 -1l-1 -1l-1 -1l-1 -1l-1 -1l-1 -1l-1 -1l-1 -1l-1 -1l-1 -1l-1 -1l-1 -1l-1 -1l-1 -1l-1 -1l-1 -1l-1 -1l-1 -1l-1 -1l-1 -1
l-1 -1l-1 -1l-1 -1l-1 -1l-1 -1l-1 -1l-1 -1l-1 -1l-1 -1l-1 -1l-1 -1l-1 -1l-1 -1l-1 -1l-1 -1l-1 -1l-1 -1l-1 -1l-1 -1l-1 -1l-1 -1l-1 -1l-1 -1l-1 -1l-1 -1l-1 -1l-1 -1l-1 -1l-1 -1l-1 -1l-1 -1l-1 -1l-1 -1l-1 -1l-1 -1l-1 -1l-1 -1l-1 -1l-1 -1l-1 -1l-1 -1l-1 -1
l-1 -1l-1 -1l-1 -1l-1 -1l-1 -1l-1 -1l-1 -1l-1 -1l-1 -1l-1 -1l-1 -1l-1 -1l-1 -1l-1 -1l-1 -1l-1 -1l-1 -1l-1 -1l-2 -2l-1 -1l-1 -1l-1 -1l-1 -1l-1 -1l-1 -1l-1 -1l-1 -1l-1 -1l-1 -1l-1 -1l-1 -1l-1 -1l-1 -1l-1 -1l-1 -1l-1 -1l-1 -1l-1 -1l-1 -1l-1 -1l-1 -1l-1 -1
l-1 -1l-1 -1l-1 -1l-1 -1l-1 -1l-1 -1l-1 -1l-1 -1l-1 -1l-1 -1l-1 -1l-1 -1l-1 -1l-1 -1l-1 -1l-1 -1l-1 -1l-1 -1l-1 -1l-1 -1l-1 -1l-1 -1l-1 -1l-1 -1l-1 -1l-1 -1l-1 -1l-1 -2l-50 -50h-1q-7 -7 -7 -17.5t7 -17.5q8 -7 18 -7t17 7l41 41l98 99l1 1l1 1l1 1l1 1l1 1l1 1
l1 1l1 1l1 1l1 1l1 1l1 1l1 1l1 1l1 1l1 1l1 1l1 1l1 1l1 1l1 1l1 1l1 1l1 1l1 1l1 1l1 1l1 1l1 1l1 1l1 1l1 1l1 1l1 1l1 1l1 1l1 1l1 1l1 1l1 1l1 1l1 1l1 1l1 1l1 1l1 1l1 1l1 1l1 1l1 1l1 1l1 1l1 1l1 1l1 1l1 1l2 2l1 1l1 1l1 1l1 1l1 1l1 1l1 1l1 1l1 1l1 1l1 1l1 1
l1 1l1 1l1 1l1 1l1 1l1 1l1 1l1 1l1 1l1 1l1 1l1 1l1 1l1 1l1 1l1 1l1 1l1 1l1 1l1 1l1 1l1 1l1 1l1 1l1 1l1 1l1 1l1 1l1 1l1 1l1 1l1 1l1 1l1 1l1 1l1 1l1 1l1 1l1 1l1 1l1 1l1 1l1 1l1 1l1 1l1 1l1 1l2 2l1 1l1 1l1 1l1 1l1 1l1 1l1 1l1 1l1 1l1 1l1 1l1 1l1 1l1 1l1 1
l1 1l1 1l1 1l1 1l1 1l1 1l1 1l1 1l1 1l1 1l1 1l1 1l1 1l1 1l1 1l1 1l1 1l1 1l1 1l1 1l1 1l1 1v1l1 1l1 1l1 1l1 1l1 1l1 1l1 1l1 1l1 1l1 1l2 1l1 1l1 1l1 1l1 1l1 1l1 1l1 1l1 1l1 1l1 1l1 1l1 1l1 1l1 1l1 1l1 1l1 1l1 1l1 1l1 1l1 1l1 1l1 1l1 1l1 1l1 1l1 1l1 1l1 1l1 1
l1 1l1 1l1 1l1 1l1 1l1 1l1 1l1 1l1 1l1 1v1l1 1l1 1l1 1l1 1l1 1l1 1l1 1l1 1l1 1l1 1l1 1l1 1l1 1l50 50l1 1q7 7 7 17t-7 17l-41 42l-1 1l-1 1l-1 1l-1 1l-1 1l-1 1l-1 1l-1 1l-1 1l-1 1l-1 1l-1 1l-1 1l-1 1l-1 1l-1 1l-1 1l-1 1l-1 1l-1 1l-1 1l-1 1l-1 1l-1 1l-1 1
l-1 1l-1 1l-1 1l-1 1l-1 1l-1 1l-1 1l-1 1l-1 1l-1 1l-1 1l-1 1l-1 1l-1 1l-1 1l-1 1l-1 1l-1 1l-1 1l-1 1l-1 1l-1 1l-1 1l-1 1l-1 1l-1 1l-1 1l-1 1l-1 1l-1 1l-1 1l-1 1l-1 1l-1 1l-1 1l-1 1l-1 1l-1 1l-1 1l-1 1l-1 1l-1 1l-1 1l-1 1l-1 1l-1 1l-1 1l-1 1l-1 1l-1 1
l-1 1v1l-1 1l-1 1l-1 1l-1 1l-1 1l-1 1l-1 1l-1 1l-1 1l-1 1l-1 1l-1 1l-1 1l-1 1l-1 1l-1 1l-1 1l-1 1l-1 1l-1 1l-2 1q-59 60 -119 120q-51 52 -103 104q-5 6 -15 16l-19 18q-8 9 -16 16v1q-7 7 -17.5 7t-17.5 -7q-7 -8 -7 -17.5t7 -17.5z" />
    <glyph glyph-name="uniE614" unicode="&#xe614;" 
d="M630 867q9 0 17 -6q9 -7 11 -18.5t-5 -21.5l-297 -418l297 -417q7 -10 5 -21.5t-11.5 -18.5t-21.5 -5t-19 11l-309 435q-12 16 0 33l309 434q9 13 24 13z" />
    <glyph glyph-name="uniE615" unicode="&#xe615;" 
d="M528 145l438 431q5 5 5 12.5t-5 12.5t-12 5t-12 -5l-426 -419l-425 424q-5 5 -12 5t-12 -5t-5 -12t5 -12l437 -437q5 -5 12 -5t12 5z" />
    <glyph glyph-name="uniE616" unicode="&#xe616;" 
d="M300 405v-1q-1 -1 -1 -2q-7 -13 -4.5 -28t13.5 -26l344 -325q14 -13 33 -12.5t32.5 14.5t13 33.5t-14.5 32.5l-309 292l308 296q14 13 14 32.5t-13 33.5q-14 14 -34 14q-19 0 -32 -13l-341 -328l-1 -1v-1l-2 -2q-1 -1 -6 -9zM300 405z" />
    <glyph glyph-name="uniE617" unicode="&#xe617;" 
d="M512 160l417 448h-834z" />
    <glyph glyph-name="uniE618" unicode="&#xe618;" 
d="M512 832q185 0 316.5 -131.5t131.5 -316.5t-131.5 -316.5t-316.5 -131.5t-316.5 131.5t-131.5 316.5t131.5 316.5t316.5 131.5zM512 -4q105 0 194.5 52t142 141.5t52.5 194.5t-52.5 194.5t-142 141.5t-194.5 52t-195 -52t-142 -141.5t-52 -194.5t52 -194.5t142 -141.5
t195 -52zM593.5 631q9.5 0 16 -6.5t6.5 -16t-7 -15.5l-207 -209l207 -209q7 -6 7 -15.5t-7 -16t-16 -6.5t-15 7l-239 240l239 240q6 7 15.5 7z" />
    <glyph glyph-name="uniE619" unicode="&#xe619;" horiz-adv-x="1329" 
d="M681 873q-100 0 -191 -39t-157 -105t-105 -157t-39 -191t39 -191t105 -156.5t157 -104.5t191 -39t191 39t156.5 104.5t104.5 156.5t39 191t-39 191t-104.5 157t-156.5 105t-191 39zM680.5 -69q-91.5 0 -175 35.5t-143.5 96t-96 144t-36 175t36 175t96 144t143.5 96
t175 35.5t175 -35.5t144 -96t96 -144t35.5 -175t-35.5 -175t-96 -144t-144 -96t-175 -35.5zM784 589q-28 13 -68 14q-25 1 -51 -7.5t-49 -26t-31.5 -44.5t3.5 -64q25 -55 8 -127q-15 -42 -26.5 -59.5t-41.5 -48.5q-33 -33 -36.5 -73.5t25 -74t83.5 -41.5q27 -3 48 1
t43.5 19.5t41 50.5t31.5 88q12 32 32.5 58.5t44.5 52t37 47.5q17 31 19 61.5t-7.5 54.5t-24 45.5t-32 36.5t-30 24t-19.5 13zM827 351q-5 -6 -26.5 -29t-33 -37.5t-26 -39.5t-20.5 -50q-14 -58 -36.5 -87.5t-52 -31.5t-66.5 14q-35 19 -33 56t37 65q54 53 69 131
q14 63 -10 127q-13 29 -2 51.5t35 31t51 11t46 -7.5q9 -4 12 -6q11 -6 23.5 -15.5t29.5 -30t26 -42.5t4.5 -51.5t-27.5 -58.5zM954.5 537q-10.5 5 -23 -3t-19 -23t-3.5 -29.5t13.5 -19t23 3t19 23t3.5 29.5t-13.5 19zM942 498q-2 -6 -5 -9.5t-5 -2.5q-3 1 3 15q2 6 5 9.5
t5 3.5q3 -2 -3 -16zM929.5 620.5q-10.5 7.5 -25.5 1t-24.5 -22.5t-9 -32.5t11 -23.5t25 -1t24.5 22t9.5 32.5t-11 24zM913 577.5q-12 -19.5 -20 -15.5q-8 5 4 25q11 18 20 14q8 -4 -4 -23.5zM859.5 697.5q-14.5 5.5 -28 -4t-20.5 -30.5q-8 -20 -4 -38.5t18 -23.5t28.5 5.5
t21.5 31.5q8 23 3.5 38.5t-19 21zM852 648q-3 -10 -8.5 -17.5t-9.5 -5.5q-7 2 -1 27q4 11 8.5 17.5t8.5 5.5q11 -3 2 -27zM756.5 732.5q-16.5 0.5 -27.5 -12.5t-11 -38q-1 -23 8.5 -40.5t25.5 -17.5q18 -1 28.5 14t10.5 40q1 25 -8.5 39.5t-26 15zM742 678q0 13 3.5 21.5
t8.5 8.5q12 1 13 -28q0 -12 -3.5 -22t-8.5 -10q-11 -1 -13 30zM643 755q-22 -1 -35 -20t-10 -50q1 -29 16.5 -48t36.5 -18q23 1 35 22t11 50q-2 31 -17 48.5t-37 15.5zM622 685q-3 18 3 31t16 15q13 2 21 -8.5t10 -29.5q2 -18 -4 -33t-16 -17q-24 -2 -30 42z" />
    <glyph glyph-name="uniE61A" unicode="&#xe61a;" horiz-adv-x="1329" 
d="M666 878q-100 0 -191 -39t-157 -104.5t-104.5 -156.5t-38.5 -191t38.5 -191.5t104.5 -157t157 -104.5t191 -39t191 39t157 104.5t105 157t39 191.5t-39 191t-105 156.5t-157 104.5t-191 39zM916 621q20 -16 2 -48q-10 -17 -21.5 -24t-18.5 -6t-13 4q-25 21 1 61
q8 12 18.5 17.5t18.5 3.5t13 -8zM796 670q6 18 19 27.5t28 4.5q30 -14 15 -61q-7 -20 -22.5 -31.5t-32.5 -1.5q-22 19 -7 62zM738 737q37 -2 37 -55q-1 -29 -12.5 -42t-24.5 -13t-25 14t-12 41q0 52 37 55zM623 759q20 2 37 -12.5t20 -51.5q2 -30 -10.5 -50.5t-34.5 -21.5
q-18 -1 -34.5 16t-19.5 50q-2 29 8.5 47.5t33.5 22.5zM844 331q-7 -7 -23.5 -25t-21 -23t-16 -19t-15 -21.5t-11 -20.5t-11.5 -26t-8 -30q-14 -48 -37 -78t-50.5 -40.5t-58 -7.5t-64.5 19q-25 12 -40.5 40t-10 66.5t39.5 70.5q17 15 32 36.5t27 51t11.5 67.5t-16.5 77
q-10 31 -3.5 57.5t29 45.5t51 28.5t62.5 7.5t64 -17l13 -9q0 1 9 -6t21.5 -19t26.5 -28.5t23.5 -38.5t13 -46.5t-5.5 -53.5t-31 -58zM949 493q-20 -38 -46 -25q-8 4 -11 15.5t5 34.5q17 31 40 23q27 -14 12 -48z" />
    <glyph glyph-name="uniE61B" unicode="&#xe61b;" 
d="M717 384l-325 -325v650z" />
    <glyph glyph-name="uniE61C" unicode="&#xe61c;" horiz-adv-x="1093" 
d="M669 247h-275q-7 0 -12 -5t-5 -12v-34q0 -7 5 -12t12 -5h275q7 0 12 5t5 12v34q0 7 -5 12t-12 5zM428 474.5q0 31.5 -22.5 54t-54.5 22.5t-54.5 -22.5t-22.5 -54t22.5 -53.5t54.5 -22t54.5 22t22.5 53.5zM961 589h-35q-1 0 -2.5 -0.5t-2.5 -0.5q-51 123 -162 198.5
t-247 75.5q-90 0 -172.5 -35t-141.5 -94.5t-94.5 -142t-35.5 -172.5q0 -147 87 -263t223 -159q5 -24 23.5 -40t43.5 -16h172q29 0 49 20t20 49v34q0 28 -20 48t-49 20h-172q-21 0 -38.5 -12.5t-24.5 -32.5q-109 41 -177 137t-68 215q0 102 50 188.5t136.5 137t188.5 50.5
q119 0 215 -68t137 -177q-7 -14 -7 -28v-205q0 -29 20 -49t49 -20h34q29 0 49 20t20 49v205q0 28 -20 48t-48 20zM711 551q-32 0 -54.5 -22.5t-22.5 -54t22.5 -53.5t54.5 -22t55 22t23 53.5t-23 54t-55 22.5z" />
    <glyph glyph-name="uniE61D" unicode="&#xe61d;" 
d="M881 333v26q3 178 -101 284q-48 50 -117 76q-5 48 -50.5 80.5t-108 32.5t-108 -32.5t-50.5 -80.5q-69 -26 -117 -76q-104 -106 -101 -284v-31q-34 -35 -21 -82q12 -43 54 -59q20 -12 44 -12q24 -107 106.5 -172.5t196.5 -65.5t196.5 65.5t106.5 172.5h3q30 0 53 19
q32 17 41 52q14 51 -27 87v0zM371 502q3 -5 8 -13t21 -27t34.5 -36t47.5 -36t60 -31q30 -11 91 -24q40 -8 61 -14t49.5 -22t46.5 -39q0 -1 1 -2v-2q0 -28 -4 -55q-38 -60 -98.5 -97.5t-137.5 -45.5q-13 17 -41 17q-19 0 -33 -9t-14 -22t14 -22t33 -9q17 0 30 7t15 19
q50 5 95 23q64 26 111 74l14 16q-28 -86 -99 -136t-167 -50h-1q-125 0 -204 81t-79 209l-1 16q0 9 2 45q26 9 48.5 26t36.5 32.5t25.5 33t15 25t5.5 12.5zM431 243q0 -22 -16 -38t-38.5 -16t-38 16t-15.5 38t15.5 38t38 16t38.5 -16t16 -38zM681 243q0 -22 -15.5 -37.5
t-37.5 -15.5t-37.5 15.5t-15.5 37.5t15.5 37.5t37.5 15.5t37.5 -15.5t15.5 -37.5zM681 243z" />
    <glyph glyph-name="uniE61E" unicode="&#xe61e;" 
d="M1010 578l-255 181q-1 0 -2 1q-6 4 -9 4h-6h-1l-1 1h-383q-1 0 -1 -1h-1h-6q-7 -2 -11 -5h-1l-255 -185q-11 -8 -13 -21q-2 -14 7 -24l446 -580q1 -1 2 -1.5t1 -1t1 -0.5q1 -2 2 -2q0 -1 1 -1q0 -1 3 -2q3 -2 5 -2q1 -1 2 -1l1 -1q2 0 4.5 -0.5t3.5 -0.5v0v0v0q5 0 8 1
q2 1 3 2q2 0 5 2q1 0 2 1h1q0 1 1 1t2 2q1 1 1 1.5t1 1t2 0.5l447 584q8 12 6 25q-3 14 -13 21zM333 680l26 -104h-170zM902 576h-173l26 104zM664 576h-239l-32 125h301zM648 512l-104 -413l-103 413h207zM375 512l101 -403l-311 403h210zM713 512h207l-308 -402z" />
    <glyph glyph-name="uniE61F" unicode="&#xe61f;" 
d="M955 407l-402 402q-19 19 -46 19h-1q-27 0 -45 -18l-393 -393q-6 -6 -6 -14.5t6 -14.5t15 -6t15 6l392 393q7 6 16 6q10 0 17 -7l402 -402q6 -6 14.5 -6t15 6t6.5 14.5t-6 14.5zM884.5 339q-8.5 0 -15 -6t-6.5 -15v-312q0 -10 -5.5 -17t-13.5 -7h-197q-9 0 -15 -6
t-6 -14.5t6 -14.5t15 -6h197q25 0 43 19t18 46v312q0 9 -6 15t-14.5 6zM611 161h-218q-9 0 -15 -6t-6 -15v-134q0 -10 -5 -17t-12 -7h-186q-7 0 -12 7t-5 17v312q0 9 -6 15t-14.5 6t-14.5 -6t-6 -15v-312q0 -27 17 -46t41 -19h186q25 0 42 19t17 46v113h197q8 0 14 6t6 15
t-6 15t-14 6z" />
    <glyph glyph-name="uniE620" unicode="&#xe620;" 
d="M419 793h-261q-23 0 -39 -16t-16 -39v-261q0 -23 16 -39t39 -16h261q23 0 39.5 16t16.5 39v261q0 23 -16.5 39t-39.5 16zM437 477q0 -7 -5 -12.5t-13 -5.5h-261q-7 0 -12.5 5.5t-5.5 12.5v261q0 7 5.5 12.5t12.5 5.5h261q8 0 13 -5.5t5 -12.5v-261zM865 793h-260
q-23 0 -39.5 -16t-16.5 -39v-261q0 -23 16.5 -39t39.5 -16h260q23 0 39.5 16t16.5 39v261q0 23 -16.5 39t-39.5 16zM884 477q0 -7 -5.5 -12.5t-13.5 -5.5h-260q-8 0 -13.5 5.5t-5.5 12.5v261q0 7 5.5 12.5t13.5 5.5h260q8 0 13.5 -5.5t5.5 -12.5v-261zM419 347h-261
q-23 0 -39 -16.5t-16 -39.5v-260q0 -23 16 -39.5t39 -16.5h261q23 0 39.5 16.5t16.5 39.5v260q0 23 -16.5 39.5t-39.5 16.5zM437 31q0 -8 -5 -13.5t-13 -5.5h-261q-7 0 -12.5 5.5t-5.5 13.5v260q0 8 5.5 13.5t12.5 5.5h261q8 0 13 -5.5t5 -13.5v-260zM846 347h-222
q-31 0 -53 -22t-22 -53v-222q0 -31 22 -53t52 -22h107q8 0 13.5 5.5t5.5 13t-5.5 13t-13.5 5.5h-107q-15 0 -26 11t-11 27v222q0 16 11 27t27 11h222q16 0 27 -11t11 -26v-115q0 -7 5.5 -12.5t13 -5.5t13 5.5t5.5 12.5v115q0 31 -22 52.5t-53 21.5z" />
    <glyph glyph-name="uniE621" unicode="&#xe621;" 
d="M616 393q52 28 83 79.5t31 112.5q0 90 -64 153.5t-154 63.5t-154 -63.5t-64 -153.5q0 -62 31.5 -113.5t83.5 -79.5q-137 -35 -226 -148t-89 -258v-20h839q1 10 1 20q0 146 -90 259.5t-228 147.5z" />
    <glyph glyph-name="uniE622" unicode="&#xe622;" 
d="M102.5 516q7.5 0 13 5.5t5.5 13.5v184q0 23 16.5 39t39.5 16h187q8 0 13.5 5.5t5.5 13t-5.5 13t-13.5 5.5h-187q-39 0 -66 -27t-27 -65v-184q0 -8 5.5 -13.5t13 -5.5zM362 -5h-185q-23 0 -39.5 16t-16.5 39v189q0 8 -5.5 13.5t-13 5.5t-13 -5.5t-5.5 -13.5v-189
q0 -38 27.5 -65.5t65.5 -27.5h185q8 0 13.5 5.5t5.5 13.5t-5.5 13.5t-13.5 5.5zM845 811h-186q-7 0 -12.5 -5.5t-5.5 -13t5.5 -13t12.5 -5.5h186q23 0 39.5 -16.5t16.5 -39.5v-192q0 -7 5.5 -12.5t13 -5.5t13 5.5t5.5 12.5v192q0 39 -27.5 66t-65.5 27zM919.5 254
q-7.5 0 -13 -5t-5.5 -13v-186q0 -23 -16.5 -39t-39.5 -16h-171q-8 0 -13.5 -5.5t-5.5 -13.5t5.5 -13.5t13.5 -5.5h171q39 0 66 27.5t27 65.5v186q0 8 -5.5 13t-13 5zM103 383.5q0 -7.5 5.5 -13t12.5 -5.5h780q7 0 12.5 5.5t5.5 13t-5.5 13t-12.5 5.5h-780q-7 0 -12.5 -5.5
t-5.5 -13z" />
    <glyph glyph-name="uniE623" unicode="&#xe623;" 
d="M166 383l360 359q5 6 5 13.5t-5.5 13t-13 5.5t-13.5 -5l-372 -373q-6 -5 -6 -13t6 -13l371 -372q6 -5 13.5 -5t13 5t5.5 13t-5 13z" />
    <glyph glyph-name="uniE624" unicode="&#xe624;" 
d="M671.5 644.5q-94.5 93.5 -228 93.5t-228 -93.5t-94.5 -225.5t94.5 -225.5t228 -93.5t228 93.5t94.5 225.5t-94.5 225.5zM645.5 220q-83.5 -82 -202 -82t-202 82t-83.5 198.5t83.5 199t202 82.5t202 -82.5t83.5 -199t-83.5 -198.5zM924 34l-176 155q-5 5 -13 4.5t-13 -6.5
t-4.5 -13.5t6.5 -12.5l175 -155q5 -4 12 -4q9 0 14 6q6 6 5.5 13.5t-6.5 12.5z" />
    <glyph glyph-name="uniE625" unicode="&#xe625;" 
d="M530.5 200q-7.5 0 -13.5 5l-184 184q-5 6 -5 13.5t5.5 13t13 5.5t13.5 -5l171 -171l171 171q5 5 13 5t13 -5.5t5 -13t-5 -13.5l-184 -184q-6 -5 -13.5 -5z" />
    <glyph glyph-name="uniE626" unicode="&#xe626;" 
d="M874 320v225q0 27 -19.5 45.5t-46.5 18.5l-418 17q-7 0 -13 -5t-6 -13t5 -13.5t13 -5.5l418 -17h1q12 0 20.5 -8t8.5 -19v-225q0 -11 -8.5 -19t-20.5 -8h-1l-532 -42q-44 442 -56 488q-7 29 -30 43q-29 16 -65 6q-7 -2 -10.5 -9t-1.5 -14t8.5 -11t14.5 -2q20 6 35 -2
q10 -6 13 -20q13 -52 63 -565q1 -25 18 -42.5t41 -17.5h579q8 0 13 5.5t5 13t-5 13t-13 5.5h-579q-9 0 -15 7t-6 17q0 1 -1 1q-1 18 -4 47l530 42q27 0 46 19t19 45zM307.5 68q-15.5 0 -26.5 -11t-11 -26.5t11 -26t26.5 -10.5t26.5 10.5t11 26t-11 26.5t-26.5 11zM865.5 68
q-15.5 0 -26.5 -11t-11 -26.5t11 -26t26.5 -10.5t26 10.5t10.5 26t-10.5 26.5t-26 11z" />
    <glyph glyph-name="uniE627" unicode="&#xe627;" 
d="M867 746h-214l-61 62q-6 6 -13 6h-156q-8 0 -13 -6l-61 -62h-192q-8 0 -13.5 -5.5t-5.5 -13.5t5.5 -13.5t13.5 -5.5h200q8 0 13 6l61 62h140l61 -62q5 -6 13 -6h222q8 0 13.5 5.5t5.5 13.5t-5.5 13.5t-13.5 5.5zM822.5 633q-7.5 0 -13 -5.5t-5.5 -13.5v-581l-56 -56h-473
l-55 56v581q0 8 -5.5 13.5t-13 5.5t-13 -5.5t-5.5 -13.5v-588q0 -8 5 -13l66 -68q6 -6 14 -6q1 0 3 1h482q2 -1 3 -1q8 0 13 6l67 68q5 5 5 13v588q0 8 -5.5 13.5t-13 5.5zM353 184v294q0 8 -5.5 13.5t-13 5.5t-13 -5.5t-5.5 -13.5v-294q0 -8 5.5 -13.5t13 -5.5t13 5.5
t5.5 13.5zM531 184v294q0 8 -5.5 13.5t-13.5 5.5t-13.5 -5.5t-5.5 -13.5v-294q0 -8 5.5 -13.5t13.5 -5.5t13.5 5.5t5.5 13.5zM708 184v294q0 8 -5.5 13.5t-13 5.5t-13 -5.5t-5.5 -13.5v-294q0 -8 5.5 -13.5t13 -5.5t13 5.5t5.5 13.5z" />
    <glyph glyph-name="uniE628" unicode="&#xe628;" 
d="M659 35l-129 67q-18 10 -36 0l-219 -115q-15 -8 -23.5 -2t-5.5 23l42 245q3 20 -12 34l-177 173q-12 12 -9 22t20 12l245 36q20 3 29 21l110 222q8 16 18.5 16t17.5 -16l110 -222q9 -18 29 -21l246 -36q16 -2 19.5 -12t-8.5 -22l-178 -173q-15 -14 -11 -34
q14 -86 22 -128l20 -117q3 -16 -5.5 -22.5t-23.5 1.5z" />
    <glyph glyph-name="uniE629" unicode="&#xe629;" 
d="M885 831h-746q-31 0 -52.5 -21.5t-21.5 -52.5v-746q0 -31 21.5 -52.5t52.5 -21.5h746q31 0 52.5 21.5t21.5 52.5v746q0 31 -21.5 52.5t-52.5 21.5zM698 403h-166v-75h166v-37h-166v-152h-37v152h-169v37h169v75h-169v37h99l-99 205h37l99 -205h99l99 205h37l-99 -205h100
v-37z" />
    <glyph glyph-name="uniE62A" unicode="&#xe62a;" 
d="M312 531zM279 530.5q0 13.5 9.5 23.5t23.5 10t23.5 -10t9.5 -23.5t-9.5 -23t-23.5 -9.5t-23.5 9.5t-9.5 23zM509 531zM476 530.5q0 13.5 10 23.5t23.5 10t23 -10t9.5 -23.5t-9.5 -23t-23 -9.5t-23.5 9.5t-10 23zM568 360zM539 360q0 12 8.5 20.5t20.5 8.5t20.5 -8.5
t8.5 -20.5t-8.5 -20.5t-20.5 -8.5t-20.5 8.5t-8.5 20.5zM726 360zM697 360q0 12 8.5 20.5t20.5 8.5t21 -8.5t9 -20.5t-9 -20.5t-21 -8.5t-20.5 8.5t-8.5 20.5zM886 831h-748q-30 0 -51.5 -21.5t-21.5 -51.5v-748q0 -30 21.5 -51.5t51.5 -21.5h748q30 0 51.5 21.5t21.5 51.5
v748q0 30 -21.5 51.5t-51.5 21.5zM410 240q-48 0 -91 15l-21 -13q-20 -14 -42 -26.5t-25.5 -11t1.5 22.5t11.5 42t6.5 20q-44 31 -69 75.5t-25 95.5q0 91 74.5 155t179.5 64q95 0 166 -53.5t85 -134.5q-12 1 -23 1q-93 0 -158.5 -59.5t-65.5 -144.5q0 -24 6 -48h-10z
M789 146l18 -50q3 -12 0 -13q-3 -2 -20 7.5t-33 19.5l-15 9q-43 -16 -90 -16q-91 0 -155 54.5t-64 131.5t64 131.5t155 54.5t155 -54.5t64 -131.5q0 -42 -21 -79.5t-58 -63.5z" />
    <glyph glyph-name="uniE62B" unicode="&#xe62b;" 
d="M818 793h102q17 0 29 -12t12 -29v-163q0 -17 -12 -29.5t-29 -12.5h-818q-17 0 -29 12.5t-12 29.5v163q0 17 12 29t29 12h102v-62h-61q-8 0 -14 -5.5t-6 -14.5v-82q0 -8 6 -14t14 -6h736q8 0 14 6t6 14v82q0 8 -6 14t-14 6h-61v62zM634 793h-246v-62h246v62zM164 507h-62
q-17 0 -29 -12t-12 -29v-491q0 -17 12 -29t29 -12h818q17 0 29 12t12 29v491q0 17 -12 29t-29 12h-62v-62h21q8 0 14 -6t6 -14v-409q0 -8 -6 -14t-14 -6h-736q-8 0 -14 6t-6 14v409q0 8 6 14t14 6h21v62zM695 803q0 13 9 22t21.5 9t21.5 -9t9 -22v-143q0 -13 -9 -22
t-21.5 -9t-21.5 9t-9 22v143zM266 803q0 13 9 22t21.5 9t21.5 -9t9 -22v-143q0 -13 -9 -22t-21.5 -9t-21.5 9t-9 22v143zM645 200q-19 -59 -48 -107h103v-23h-377v23h248q28 46 50 114zM397 201q19 -35 36 -86l-22 -5q-13 42 -36 84zM501 210q18 -43 29 -92l-22 -5
q-13 50 -29 90zM395 251h232v-21h-232v21zM372 401q-17 -35 -40 -63l-21 13q42 51 61 115l24 -5q-9 -25 -14 -38h124v-22h-71q14 -29 20 -49l-22 -8q-9 28 -22 57h-39zM562 401q-12 -25 -27 -46l-20 14q31 43 46 97l24 -5q-6 -18 -13 -38h135v-22h-77q16 -28 26 -53l-23 -8
q-11 28 -29 61h-42zM519 351q86 -63 195 -99l-12 -21q-113 38 -191 100q-73 -58 -191 -100l-12 22q117 39 195 98h16z" />
    <glyph glyph-name="uniE62C" unicode="&#xe62c;" 
d="M896 30q0 -13 -11 -21.5t-25 -8.5h-696q-14 0 -25 8.5t-11 21.5v0q0 5 0.5 13.5t6 31t14.5 42.5t28.5 41.5t46.5 33.5q31 12 54 15.5t60 14.5l90 36l-6 48l-9 3q-6 2 -21 10.5t-27.5 19t-24 29t-14.5 40.5q-16 -4 -26 13.5t-10 34.5q0 4 -1.5 15t-2.5 20.5t0 19t6.5 14.5
t15.5 3q-12 84 -12 102q2 8 2.5 18.5t1.5 15t7 13t19 19.5q3 3 0 22.5t0 25.5q2 3 10 5t19 2.5t21 0.5l22 -2h12q45 18 96 18q100 -4 149.5 -45.5t54.5 -98.5q0 -54 -12 -96q8 2 13 -3t6 -15t1 -19t-1 -20.5t-1 -14.5q0 -17 -10 -34.5t-26 -13.5q-5 -37 -26 -62.5t-40 -32.5
l-18 -7l-6 -48q18 -6 90 -36q35 -15 59.5 -18t54.5 -18q45 -19 70.5 -58t28.5 -68l3 -30v0zM896 30z" />
    <glyph glyph-name="uniE62D" unicode="&#xe62d;" 
d="M418.5 -63q-63.5 0 -108.5 45l-37 38q-11 11 -11 26t11 26q15 15 15 37t-15.5 37t-37 15t-36.5 -15q-11 -11 -26.5 -11t-26.5 11l-37 38q-45 45 -45 108t45 108l42 42q11 11 26 11t26 -10.5t11 -26t-11 -26.5l-42 -42q-23 -23 -23 -56t23 -56l15 -16q36 20 77.5 14
t71 -35.5t35.5 -71.5t-13 -77l16 -16q23 -23 55.5 -23t55.5 23l388 388q23 23 23 55.5t-23 55.5l-16 16q-35 -19 -77 -13t-71 35q-37 37 -37 89q0 32 14 60l-15 15q-23 23 -56 23t-56 -23l-258 -257q-11 -11 -26 -11t-26 10.5t-11 26t11 26.5l258 257q44 45 107.5 45
t108.5 -45l38 -38q11 -10 11 -25.5t-11 -26.5q-16 -15 -16 -36.5t15.5 -37t37 -15.5t37.5 15q11 11 26 11t26 -11l38 -38q44 -44 44 -107.5t-44 -108.5l-387 -387q-45 -45 -108.5 -45zM645 466l-216 -216q-11 -11 -26 -11t-26 11q-11 10 -11 25.5t11 26.5l216 216
q11 11 26 11t26 -11t11 -26.5t-11 -25.5z" />
    <glyph glyph-name="uniE62E" unicode="&#xe62e;" 
d="M512 -63q-95 0 -181 26q-84 26 -147 72q-12 9 -14 24t7 27.5t24 14.5t27 -7q54 -40 128.5 -62t155.5 -22q78 0 150 21q67 19 120 53q50 34 77 75q26 41 26 83q0 54 -47 131q-49 78 -127 149q-13 12 -11.5 30t16.5 28q32 21 46.5 38.5t14.5 26.5q0 15 -16.5 34t-51.5 36
q-83 42 -197.5 42t-196.5 -42q-35 -17 -52 -36t-17 -34q0 -9 15 -26.5t47 -38.5q15 -10 16.5 -28t-11.5 -30q-79 -71 -127 -149q-48 -77 -48 -131q0 -31 15 -61q6 -14 1 -28.5t-18.5 -21t-28 -1.5t-21.5 19q-21 45 -21 93q0 75 59 170q42 69 107 134q-58 49 -58 99
q0 42 33 80q27 32 75 56q99 50 231 50t230 -50q48 -24 76 -56q33 -38 33 -80q0 -50 -58 -99q65 -65 107 -134q59 -95 59 -170q0 -64 -38 -123q-36 -54 -99 -96q-130 -86 -310 -86zM661 350q9 0 15.5 6.5t6.5 15.5v22q0 9 -6.5 15.5t-15.5 6.5h-76l75 76q7 6 7 15t-7 15
l-12 12q-6 6 -15 6t-15 -6l-107 -107l-107 107q-6 6 -15 6t-15 -6l-12 -12q-6 -6 -6 -15t6 -15l76 -76h-75q-9 0 -15.5 -6.5t-6.5 -15.5v-22q0 -9 6.5 -15.5t15.5 -6.5h112v-36h-112q-9 0 -15.5 -6t-6.5 -15v-23q0 -9 6.5 -15t15.5 -6h112v-119q0 -15 10.5 -26t26.5 -11
q15 0 25.5 11t10.5 26v119h113q9 0 15.5 6t6.5 15v23q0 9 -6.5 15t-15.5 6h-113v36h113z" />
    <glyph glyph-name="uniE62F" unicode="&#xe62f;" 
d="M535 305q15 0 26 11t11 26t-11 26t-26 11h-305q-15 0 -26 -11t-11 -26t11 -26t26 -11h305zM232 120q-39 0 -66.5 28t-27.5 67v29q0 15 -11 25.5t-26 10.5t-26 -10.5t-11 -25.5v-29q0 -70 49.5 -119.5t118.5 -49.5h432q-30 33 -46 74h-386zM790 721h-558
q-69 0 -118.5 -49.5t-49.5 -118.5v-188q0 -15 11 -26t26 -11t26 11t11 26v93h747v-68q41 -15 73 -45v208q0 69 -49 118.5t-119 49.5zM885 532h-747v21q0 39 27.5 66.5t66.5 27.5h558q39 0 67 -27.5t28 -66.5v-21zM805.5 353q-63.5 0 -108.5 -45t-45 -108.5t45 -108.5
t108.5 -45t108.5 45t45 108.5t-45 108.5t-108.5 45zM898 219q0 -5 -3.5 -8.5t-8.5 -3.5h-60v-19h60q5 0 8.5 -3.5t3.5 -8.5v-12q0 -5 -3.5 -8.5t-8.5 -3.5h-60v-64q0 -8 -6 -13.5t-14 -5.5t-14 5.5t-6 13.5v64h-61q-4 0 -7.5 3.5t-3.5 8.5v12q0 5 3.5 8.5t7.5 3.5h61v19h-61
q-4 0 -7.5 3.5t-3.5 8.5v12q0 5 3.5 8t7.5 3h41l-41 41q-8 9 0 17l6 6q9 8 17 0l57 -57l58 57q8 8 16 0l7 -6q8 -8 0 -17l-41 -41h41q5 0 8.5 -3t3.5 -8v-12z" />
    <glyph glyph-name="uniE630" unicode="&#xe630;" 
d="M712.5 541q-15.5 0 -26 11t-10.5 26q0 63 -49 109.5t-115 46.5t-115 -46.5t-49 -109.5q0 -15 -11 -26t-26 -11t-26 11t-11 26q0 47 20 90q19 41 52 73q34 31 76 49q44 17 90 17t90 -17q42 -18 75 -49q34 -32 53 -73q19 -43 19 -90q0 -15 -10.5 -26t-26 -11zM512 -37
q-91 0 -163 19q-82 22 -141 69q-12 9 -13.5 24.5t8 27.5t24.5 13.5t27 -7.5q47 -38 114 -56q63 -16 144 -16q163 0 267 84q107 87 107 234v116q0 33 -5 47q-9 -2 -25 -10q-17 -9 -60 -37q-38 -24 -61.5 -37.5t-64 -33.5t-79.5 -29.5t-78.5 -9.5t-79 9.5t-79.5 29.5
t-63.5 33.5t-62.5 37.5q-43 28 -60 37q-15 8 -24 10q-5 -14 -5 -47v-1l-1 -115q0 -45 7.5 -77.5t27.5 -70.5q7 -14 2.5 -28.5t-18 -21.5t-28 -2.5t-21.5 18.5q-25 46 -34.5 87t-9.5 95l1 116q0 89 43 113q33 18 83 -5q23 -11 77 -45q36 -23 57 -35.5t55.5 -30t67 -25.5
t64.5 -8t64.5 8t67.5 25.5t56 30t56 35.5q55 34 78 45q50 23 83 5q43 -24 43 -113v-116q0 -91 -36 -167q-35 -72 -99 -124q-61 -49 -142 -75q-80 -26 -171 -26zM841 370v2q0 16 -11 26.5t-26 10.5t-26 -10.5t-11 -26.5h-1q5 -38 -13 -79q-16 -37 -49 -65q-43 -36 -113 -55
q-14 -4 -21.5 -17.5t-3.5 -28.5q3 -12 13 -19.5t22 -7.5q5 0 10 2q87 24 143 72q47 40 69 94q21 50 18 102z" />
    <glyph glyph-name="uniE631" unicode="&#xe631;" 
d="M512 -63q-108 0 -203 49q-92 46 -154 129q-9 12 -7 27.5t14 24.5t27 7t25 -14q52 -70 129 -109q79 -40 169 -40q75 0 143 28t121 81t81 121t28 143t-28 143t-81 121t-121 81.5t-143 28.5t-143 -28.5t-121 -81.5t-81.5 -121t-28.5 -143q0 -54 16 -106q4 -15 -3 -28
t-22 -17.5t-28.5 2.5t-17.5 22q-18 62 -18 127q0 91 35 174q34 81 96 142.5t142 95.5q83 35 174 35t174 -35q80 -34 142 -95.5t96 -142.5q35 -83 35 -174t-35 -174q-34 -80 -96 -142t-142 -96q-83 -35 -174 -35zM750 507q-11 11 -26 11t-26 -11l-158 -158l-117 117
q-11 11 -27 11q-15 0 -26 -11l-112 -112q-11 -10 -11 -25.5t11 -26t26 -10.5t26 10l86 86l117 -116q11 -11 27 -11t27 11l183 183q11 11 11 26t-11 26z" />
    <glyph glyph-name="uniE632" unicode="&#xe632;" 
d="M221 105q-15 154 141 282l201 163l-83 -245q-3 -10 -4.5 -34.5t0.5 -39.5q1 -6 2 -10q21 8 34 30q21 32 34.5 69.5t11.5 60.5q-2 43 23 119l36 115l87 -84q2 -2 8 -7q20 -17 33.5 -33.5t27.5 -43.5t22 -69t10 -97q1 -65 -10 -123q24 34 33 69q16 60 5.5 129t-44.5 128
q-83 141 -277 233q-2 -41 -12.5 -81t-32 -82.5t-59.5 -83t-90 -74.5q-180 -118 -114 -261q8 -17 17 -30zM544 -62q55 25 93.5 64t58.5 86t27.5 93.5t6.5 97.5q-1 37 -5.5 67t-9.5 47.5t-15 33t-15.5 21.5t-17.5 16.5t-16 13.5q-20 -64 -18 -93q2 -38 -15.5 -86.5
t-42.5 -88.5q-18 -29 -47.5 -47.5t-56.5 -18.5q-26 0 -44 18.5t-25 56.5q-3 20 -1 55.5t8 54.5q-60 -49 -88.5 -101.5t-27 -96t20.5 -83t46.5 -66.5t57.5 -43l2 -1q-218 24 -284 165q-44 104 -7 193t149 163q47 30 80.5 67.5t49 72.5t23.5 70t6.5 64t-5 51.5t-7.5 35.5
l-4 12l11 -3q10 -3 28.5 -10t43 -16.5t54 -24.5t60.5 -32.5t63.5 -41.5t63 -51t59 -61t49.5 -71q41 -70 54 -152.5t-7 -160.5q-12 -45 -42 -89.5t-74.5 -83t-107 -65t-132.5 -32.5v0z" />
    <glyph glyph-name="uniE633" unicode="&#xe633;" 
d="M512 893q-103 0 -197.5 -40.5t-163 -108.5t-108.5 -162.5t-40 -198t40 -198t108.5 -162.5t163 -108.5t198 -40.5t198 40.5t162.5 108.5t108.5 162.5t40.5 198t-40.5 198t-108.5 162.5t-162.5 108.5t-198.5 40.5zM801 214q14 66 16 136h136q-6 -71 -33 -136h-119zM224 554
q-14 -67 -17 -136h-135q5 70 32 136h120zM731 554q15 -66 18 -136h-203v136h185v0zM546 621v199q24 -6 46 -22q43 -31 78 -89q24 -39 41 -88h-165v0zM354 709q35 58 78 89q23 16 46 22v-199h-164q17 48 40 88zM478 554v-136h-203q3 70 19 136h184zM104 214q-27 65 -32 136
h135q3 -70 17 -136h-120zM275 350h203v-136h-184q-16 65 -19 136v0zM478 146v-199q-23 7 -46 23q-43 30 -78 88q-23 39 -41 88h165v0zM670 58q-35 -58 -78 -89q-22 -16 -46 -22v199h165q-17 -48 -41 -88zM546 214v136h203q-3 -71 -18 -136h-185v0zM817 418q-2 69 -16 136
h119q27 -66 33 -136h-136zM885 621h-102q-30 95 -80 161q68 -33 122 -86q33 -33 60 -75zM200 696q53 53 122 86q-50 -66 -80 -161h-102q26 42 60 75v0zM140 146h102q30 -95 80 -161q-69 33 -122 86q-34 34 -60 75zM825 71q-54 -53 -122 -86q50 66 80 161h102
q-27 -41 -60 -75zM825 71z" />
    <glyph glyph-name="uniE634" unicode="&#xe634;" 
d="M133 279h92v-240h44v240h93v39h-229v-39zM133 279zM518 324q-67 0 -100 -42q-34 -38 -34 -103.5t34 -103.5q37 -42 100 -42t101 42q36 41 36 103q0 68 -36 104q-34 42 -101 42zM585 100q-24 -28 -67 -28t-67 28q-22 32 -22 76q0 48 22 75q24 28 67 28t67 -28
q23 -26 23 -78q0 -47 -23 -73zM585 100zM814 318h-114v-279h45v106h69q104 0 104 87q-4 86 -104 86zM854 195q-12 -11 -45 -11h-67v95h67q33 0 45 -11q13 -14 13 -36q0 -26 -13 -37zM854 195zM538 691l-238 -238h464zM538 691z" />
    <glyph glyph-name="uniE635" unicode="&#xe635;" 
d="M737 860q-66 0 -124.5 -31t-99.5 -85q-40 54 -99 85t-124 31q-119 0 -203.5 -92t-84.5 -222q0 -37 7 -70.5t22 -65t25 -50t30 -48.5q30 -48 81.5 -105.5t98 -101.5t100 -90t75 -63.5t35.5 -28.5q17 -13 37 -13t37 13q14 11 35.5 28.5t75 63.5t100 90t98 101.5t82.5 105.5
q19 30 29.5 48.5t25 50t21.5 65t7 70.5q0 130 -84.5 222t-202.5 92zM888 352q-29 -45 -79.5 -101t-96 -99t-98 -88t-71.5 -60t-30 -24q-11 9 -30 24t-71.5 60t-98 88t-96 99t-79.5 101q-24 37 -36.5 60.5t-24 60t-11.5 73.5q0 101 65.5 172.5t158.5 71.5q67 0 122 -40
t82 -105v0q5 -15 19.5 -15t18.5 15h1q26 65 81 105t123 40q92 0 157.5 -71.5t65.5 -172.5q0 -37 -11 -73.5t-24 -60t-37 -60.5z" />
    <glyph glyph-name="uniE636" unicode="&#xe636;" 
d="M729 776q-70 0 -128 -32.5t-89 -85.5q-31 53 -89 85.5t-128 32.5q-69 0 -122.5 -36t-80.5 -91t-27 -116q0 -58 24 -118.5t58.5 -110t83 -99t89.5 -83.5t86 -65.5t63 -43t30 -18.5q6 -3 13 -3t13 3q12 7 30 18.5t63 43t86 65.5t89.5 83.5t83 99t58.5 110t24 118.5
q0 61 -27 116t-80.5 91t-122.5 36z" />
    <glyph glyph-name="uniE637" unicode="&#xe637;" 
d="M424 781h-220q-34 0 -58.5 -24t-24.5 -58v-208q0 -3 1 -7q5 -29 28 -49t54 -20h220q29 2 50.5 21.5t26.5 47.5q1 4 1 7v208q0 33 -23 56.5t-55 25.5zM458 503q0 -19 -13 -31.5t-31 -12.5h-206q-18 0 -30.5 12.5t-12.5 31.5v191q0 18 12.5 31t30.5 13h206q18 0 31 -13
t13 -31v-191zM902 701q0 32 -22 55t-54 25h-192q-33 0 -57 -23.5t-24 -56.5v-203q0 -3 1 -6q5 -29 27.5 -48.5t52.5 -19.5h192q28 2 49 21t26 47q1 3 1 6v203zM859 509q0 -17 -12.5 -29.5t-29.5 -12.5h-178q-18 0 -30.5 12.5t-12.5 29.5v187q0 18 12.5 30.5t30.5 12.5h178
q17 0 29.5 -12.5t12.5 -30.5v-187zM416 356h-214q-34 0 -57.5 -23.5t-23.5 -56.5v-202q0 -3 1 -7q5 -29 27.5 -48t52.5 -19h214q28 2 49 21t25 46q2 4 2 7v202q-1 32 -23 55t-53 25zM449 85q0 -18 -12.5 -30.5t-30.5 -12.5h-193h-7q-18 0 -30.5 12.5t-12.5 30.5v186
q0 18 12.5 30.5t30.5 12.5h200q18 0 30.5 -12.5t12.5 -30.5v-186zM721 143q-11 0 -19 -7.5t-8 -18.5v-51q0 -11 8 -18.5t19 -7.5t19 7.5t8 18.5v51q0 11 -8 18.5t-19 7.5zM835 169q-11 0 -19 -7.5t-8 -18.5v-77q0 -11 8 -18.5t19 -7.5t18.5 7.5t7.5 18.5v77q0 11 -7.5 18.5
t-18.5 7.5zM835 323q-11 0 -19 -7.5t-8 -18.5v-51q0 -11 8 -18.5t19 -7.5t18.5 7.5t7.5 18.5v51q0 11 -7.5 18.5t-18.5 7.5zM721 323q-11 0 -19 -7.5t-8 -18.5v-103q0 -10 8 -17.5t19 -7.5t19 7.5t8 17.5v103q0 11 -8 18.5t-19 7.5zM606 194q-11 0 -19 -7.5t-8 -17.5v-103
q0 -11 8 -18.5t19 -7.5t19 7.5t8 18.5v103q0 10 -8 17.5t-19 7.5zM606 323q-11 0 -19 -7.5t-8 -18.5v-26q0 -10 8 -17.5t19 -7.5t19 7.5t8 17.5v26q0 11 -8 18.5t-19 7.5z" />
    <glyph glyph-name="uniE638" unicode="&#xe638;" 
d="M798 449h-62v185q0 82 -75 140.5t-180.5 58.5t-180.5 -58.5t-75 -140.5l-1 -185h-64q-26 0 -44.5 -17.5t-18.5 -38.5l-1 -400q0 -21 19.5 -38.5t45.5 -17.5h639q25 0 43.5 17.5t18.5 38.5l2 400q0 21 -20 38.5t-46 17.5zM607 449h-255v192q0 40 37.5 66.5t91 26.5
t90.5 -26t37 -67z" />
    <glyph glyph-name="uniE639" unicode="&#xe639;" horiz-adv-x="1031" 
d="M1031 113l-516 507l-515 -507h1031z" />
    <glyph glyph-name="uniE63A" unicode="&#xe63a;" horiz-adv-x="1025" 
d="M483 413v8v327q0 23 19 29q13 5 24.5 -2.5t12.5 -21.5v-8v-325v-7h8q242 0 326 -1q8 0 12 -1q10 -2 15.5 -10.5t4.5 -18.5q0 -10 -7 -17t-17 -9h-9h-324h-9v-8v-328q0 -25 -22 -30q-12 -3 -22.5 5t-11.5 21v7v325v8h-8h-326q-18 0 -27 11q-9 13 -3.5 27.5t21.5 17.5
q4 1 10 1h325h8z" />
    <glyph glyph-name="uniE63B" unicode="&#xe63b;" horiz-adv-x="1182" 
d="M412 678h-217q-24 0 -27 23q-2 12 5.5 21t18.5 9h5h739q25 0 29 -22q2 -12 -5.5 -21t-18.5 -10h-7h-351h-8q4 -1 4 -2q21 -5 34 -24q37 -58 173 -268q168 -258 170 -261q11 -17 9.5 -36t-16.5 -33q-14 -14 -35 -15h-5h-686q-39 0 -52 34q-10 26 6 50q9 14 97 150
q198 305 242 373q18 27 40 32h-144zM912 93v1l-1 1l-1 1v1l-1 1l-1 1v1l-1 1l-1 1v1l-1 1v1l-1 1l-1 1v1l-1 1l-1 1v1l-1 1l-1 1v1l-1 1l-1 1v1l-1 1l-1 1v1l-1 1l-1 1v1l-1 1v1l-1 1l-1 1v1l-1 1l-1 1v1l-1 1l-1 1v1l-1 1l-1 1v1l-1 1l-1 1v1l-1 1l-1 1v1l-1 1l-1 1v1l-1 1
v1l-1 1l-1 1v1l-1 1l-1 1v1l-1 1l-1 1v1l-1 1l-1 1v1l-1 1l-1 1v1l-1 1l-1 1v1l-1 1v1l-1 1l-1 1v1l-1 1l-1 1v1l-1 1l-1 1v1l-1 1l-1 1v1l-1 1l-1 1v1l-1 1l-1 1v1l-1 1v1l-1 1l-1 1v1l-1 1l-1 1v1l-1 1l-1 1v1l-1 1l-1 1v1l-1 1l-1 1v1l-1 1l-1 1v1l-1 1v1l-1 1l-1 1v1
l-1 1l-1 1v1l-1 1l-1 1v1l-1 1l-1 1v1l-1 1l-1 1v1l-1 1l-1 1v1l-1 1v1l-1 1l-1 1v1l-1 1l-1 1v1l-1 1l-1 1v1l-1 1l-1 1v1l-1 1l-1 1v1l-1 1l-1 1v1l-1 1v1l-1 1l-1 1v1l-1 1l-1 1v1l-1 1l-1 1v1l-1 1l-1 1v1l-1 1l-1 1v1l-1 1l-1 1v1l-1 1v1l-1 1l-1 1v1l-1 1l-1 1v1l-1 1
l-1 1v1l-1 1l-1 1v1l-1 1l-1 1v1l-1 1l-1 1v1l-1 1l-1 2l-1 1v1l-1 1l-1 1v1l-1 1l-1 1v1l-1 1l-1 1v1l-1 1l-1 1v1l-1 1l-1 1v1l-1 1v1l-1 1l-1 1v1l-1 1l-1 1v1l-1 1l-1 1v1l-1 1l-1 1v1l-1 1l-1 1v1l-1 1l-1 1v1l-1 1v1l-1 1l-1 1v1l-1 1l-1 1v1l-1 1l-1 1v1l-1 1l-1 1v1
l-1 1l-1 1v1l-1 1l-1 1v1l-1 1v1l-1 1l-1 1v1l-1 1l-1 1v1l-1 1l-1 1v1l-1 1l-1 1v1l-1 1l-1 1v1l-1 1l-1 1v1l-1 1v1l-1 1l-1 1v1l-1 1l-1 1v1l-1 1l-1 1v1l-1 1l-1 1v1l-1 1l-1 1v1l-1 1l-1 1v1l-1 1v1l-1 1l-1 1v1l-1 1l-1 1v1l-1 1l-1 1v1l-1 1l-1 1v1l-1 1l-1 1v1l-1 1
l-1 1v1l-1 1v1l-1 1l-1 1v1l-1 1l-1 1v1l-1 1l-1 1v1l-1 1l-1 1v1l-1 1l-1 1v1l-1 1l-1 1v1l-1 1v1l-1 1l-1 1v1l-1 1l-1 1v1l-1 1l-1 1v1l-1 1l-1 1v1l-1 1l-1 1v1l-1 1v1l-1 1l-1 1v1l-1 1l-1 1v1l-1 1l-1 1v1l-1 1l-1 1v1l-1 1l-1 1v1l-1 1l-1 1v1l-1 1v1l-1 1l-1 1v1
l-1 1l-1 1v1l-1 1l-1 1v1l-1 1l-1 1v1l-1 1l-1 1v1l-1 1l-1 1v1l-1 1v1l-1 1l-1 1v1l-1 1l-1 1v1l-1 1l-1 1v1l-1 1l-1 1v1l-1 1l-1 1v1l-1 1l-1 1v1l-1 1v1l-1 1l-1 1v1l-1 1l-1 1v1l-1 1l-1 1v1l-1 1l-1 1v1l-1 1l-1 1v1l-1 1l-1 1v1l-1 1v1l-1 1l-1 1v1l-1 1l-1 1v1l-1 1
l-1 1v1l-1 1l-1 1v1l-1 1l-1 1v1l-1 1l-1 1v1l-1 1v1l-1 1l-1 1v1l-1 1l-1 1v1l-1 1l-1 1v1l-1 1l-1 1v1l-1 1l-1 1v1l-1 1l-1 1v1l-1 1v1l-1 1l-1 1v1l-1 1l-1 1v1l-1 1l-1 1v1l-1 1l-1 1v1l-1 1l-1 1v1l-1 1l-1 1v1l-1 1v1l-1 1l-1 1v1l-1 1l-1 1v1l-1 1l-1 1v1l-1 1l-1 1
v1l-1 1l-1 1v1l-1 1l-1 1v1l-1 1v1l-1 1l-1 1v1l-1 1l-1 1v1l-1 1l-1 1v1l-1 1l-1 1v1l-1 1l-1 1v1l-1 1l-1 1v1l-1 1l-1 1v-1l-1 -1l-1 -1v-1l-1 -1l-1 -1v-1l-1 -1l-1 -1v-1l-1 -1v-1l-1 -1l-1 -1v-1l-1 -1l-1 -1v-1l-1 -1l-1 -1v-1l-1 -1l-1 -1v-1l-1 -1l-1 -1v-1l-1 -1
l-1 -1v-1l-1 -1l-1 -1v-1l-1 -1v-1l-1 -1l-1 -1v-1l-1 -1l-1 -1v-1l-1 -1l-1 -1v-1l-1 -1l-1 -1v-1l-1 -1l-1 -1v-1l-1 -1l-1 -1v-1l-1 -1v-1l-1 -1l-1 -1v-1l-1 -1l-1 -1v-1l-1 -1l-1 -1v-1l-1 -1l-1 -1v-1l-1 -1l-1 -1v-1l-1 -1l-1 -1v-1l-1 -1v-1l-1 -1l-1 -1v-1l-1 -1
l-1 -1v-1l-1 -1l-1 -1v-1l-1 -1l-1 -1v-1l-1 -1l-1 -1v-1l-1 -1l-1 -1v-1l-1 -1v-1l-1 -1l-1 -1v-1l-1 -1l-1 -1l-1 -1v-1l-1 -1l-1 -1v-1l-1 -1v-1l-1 -1l-1 -1v-1l-1 -1l-1 -1v-1l-1 -1l-1 -1v-1l-1 -1l-1 -1v-1l-1 -1l-1 -1v-1l-1 -1l-1 -1v-1l-1 -1v-1l-1 -1l-1 -1v-1
l-1 -1l-1 -1v-1l-1 -1l-1 -1v-1l-1 -1l-1 -1v-1l-1 -1l-1 -1v-1l-1 -1l-1 -1v-1l-1 -1v-1l-1 -1l-1 -1v-1l-1 -1l-1 -1v-1l-1 -1l-1 -1v-1l-1 -1l-1 -1v-1l-1 -1l-1 -1v-1l-1 -1l-1 -1v-1l-1 -1v-1l-1 -1l-1 -1v-1l-1 -1l-1 -1v-1l-1 -1l-1 -1v-1l-1 -1l-1 -1v-1l-1 -1
l-1 -1v-1l-1 -1l-1 -1v-1l-1 -1v-1l-1 -1l-1 -1v-1l-1 -1l-1 -1v-1l-1 -1l-1 -1v-1l-1 -1l-1 -1v-1l-1 -1l-1 -1v-1l-1 -1l-1 -1v-1l-1 -1v-1l-1 -1l-1 -1v-1l-1 -1l-1 -1v-1l-1 -1l-1 -1v-1l-1 -1l-1 -1v-1l-1 -1l-1 -1v-1l-1 -1l-1 -1v-1l-1 -1v-1l-1 -1l-1 -1v-1l-1 -1
l-1 -1v-1l-1 -1l-1 -1v-1l-1 -1l-1 -1v-1l-1 -1l-1 -1v-1l-1 -1l-1 -1v-1l-1 -1v-1l-1 -1l-1 -1v-1l-1 -1l-1 -1v-1l-1 -1l-1 -1v-1l-1 -1l-1 -1v-1l-1 -1l-1 -1v-1l-1 -1l-1 -1v-1l-1 -1v-1l-1 -1l-1 -1v-1l-1 -1l-1 -1v-1l-1 -1l-1 -1v-1l-1 -1l-1 -1v-1l-1 -1l-1 -1v-1
l-1 -1l-1 -1v-1l-1 -1v-1l-1 -1l-1 -1v-1l-1 -1l-1 -1v-1l-1 -1l-1 -1v-1l-1 -1l-1 -1v-1l-1 -1l-1 -1v-1l-1 -1l-1 -1v-1l-1 -1v-1l-1 -1l-1 -1v-1l-1 -1l-1 -1v-1l-1 -1l-1 -1v-1l-1 -1l-1 -1v-1l-1 -1l-1 -1v-1l-1 -1v-1l-1 -1l-1 -1v-1l-1 -1l-1 -1v-1l-1 -1l-1 -1v-1
l-1 -1l-1 -1v-1l-1 -1l-1 -1v-1l-1 -1l-1 -1v-1l-1 -1v-1l-1 -1l-1 -1v-1l-1 -1l-1 -1v-1l-1 -1l-1 -1v-1l-1 -1l-1 -1v-1l-1 -1l-1 -1v-1l-1 -1l-1 -1v-1l-1 -1v-1l-1 -1l-1 -1v-1l-1 -1l-1 -1v-1l-1 -1l-1 -1v-1l-1 -1l-1 -1v-1l-1 -1l-1 -1v-1l-1 -1l-1 -1v-1l-1 -1v-1
l-1 -1l-1 -1v-1l-1 -1l-1 -1v-1l-1 -1l-1 -1v-1l-1 -1l-1 -1v-1l-1 -1l-1 -1v-1l-1 -1l-1 -1v-1l-1 -1v-1l-1 -1l-1 -1v-1l-1 -1l-1 -1v-1l-1 -1l-1 -1v-1l-1 -1l-1 -1v-1l-1 -1l-1 -1v-1l-1 -1v-1l-1 -1l-1 -1v-1l-1 -1l-1 -1v-1l-1 -1l-1 -1v-1l-1 -1l-1 -1v-1l-1 -1
l-1 -1v-1l-1 -1l-1 -1v-1l-1 -1v-1l-1 -1l-1 -1v-1l-1 -1l-1 -1v-1l-1 -1l-1 -1v-1l-1 -1l-1 -1v-1l-1 -1l-1 -1v-1l-1 -1l-1 -1v-1l-1 -1v-1l-1 -1l-1 -1v-1l-1 -1l-1 -1v-1l-1 -1l-1 -1v-1l-1 -1l-1 -1v-1l-1 -1l-1 -1v-1l-1 -1l-1 -1v-1l-1 -1v-1l-1 -1l-1 -1v-1l-1 -1
l-1 -1v-1l-1 -1l-1 -1v-1l-1 -1l-1 -1v-1l-1 -1l-1 -1v-1l-1 -1l-1 -1v-1l-1 -1v-1l-1 -1l-1 -1v-1l-1 -1l-1 -1v-1l-1 -1l-1 -1v-1l-1 -1l-1 -1v-1l-1 -1l-1 -1v-1l-1 -1l-1 -1v-1l-1 -1v-1l-1 -1l-1 -1v-1l-1 -1l-1 -1v-1l-1 -1l-1 -1v-1l-1 -1l-1 -1h692z" />
    <glyph glyph-name="uniE63C" unicode="&#xe63c;" 
d="M477 385q-5 4 -5 5q-14 13 -118 116l-158 159q-10 10 -9 23q2 14 15.5 19.5t25.5 -3.5l5 -5q170 -170 273 -274q1 0 4 -5h1h1l4 5q45 45 136.5 137t138.5 138q11 12 25 9t18.5 -17t-5.5 -24q-1 -1 -4 -5q-194 -193 -274 -273l-6 -5l6 -5q39 -39 132 -131.5t143 -142.5
q9 -10 9 -20q0 -16 -14 -23t-27 4l-5 5l-273 273l-4 5l-5 -4q-207 -208 -276 -276q-12 -12 -26 -8q-13 3 -17 16.5t5 23.5q1 1 4 5q168 167 274 274q1 0 6 4v0z" />
    <glyph glyph-name="uniE63D" unicode="&#xe63d;" horiz-adv-x="1095" 
d="M106 349h-44q-33 -3 -48 21q-19 31 -5 61q7 15 19 25q61 55 270 239q29 26 62.5 55.5t74 66t63.5 55.5q23 21 49.5 21t49.5 -21q220 -194 470 -415q22 -20 24 -47t-17 -48q-12 -13 -29 -13h-56v-9v-361q0 -61 -51 -93q-23 -13 -56 -13h-324h-346q-13 0 -21 2
q-39 7 -62 35t-23 68v361v10zM87 418h1v-1h7h46q24 -1 31 -24q2 -6 2 -16v-398q0 -38 38 -38h671q8 0 13 1q25 7 25 35v197v206q0 17 10 27t27 10h22h22h7q-306 271 -461 408q-245 -216 -461 -407z" />
    <glyph glyph-name="uniE63E" unicode="&#xe63e;" horiz-adv-x="1095" 
d="M988 349v-11v-359q0 -55 -42 -87q-25 -18 -58 -19h-8h-668q-69 0 -99 61q-8 18 -8 46v359v10h-47q-27 -1 -40 14q-18 23 -15 50q3 25 23 43q218 192 470 415q24 22 50.5 21.5t50.5 -21.5q188 -166 469 -415q22 -20 24 -47.5t-18 -48.5q-12 -11 -27 -11h-57z" />
    <glyph glyph-name="uniE63F" unicode="&#xe63f;" 
d="M3 385q0 177 111 316.5t284 178.5q190 43 363 -53q22 -12 18 -35q-4 -22 -27 -26q-10 -1 -23 6q-61 34 -131 49q-100 20 -198.5 -6t-176.5 -91.5t-119 -159.5q-45 -103 -37 -214q11 -137 98 -245t218 -147q73 -20 143 -19t136 26t120.5 66t95.5 100.5t61 130.5
q50 176 -40 340q-11 21 0 37q10 15 27.5 13.5t26.5 -16.5q26 -46 43 -98q32 -101 21 -204q-15 -155 -114.5 -274.5t-248.5 -163.5q-85 -23 -168 -20t-160 34.5t-139 82t-107.5 123t-64.5 156.5q-12 55 -12 113zM240 248q39 -76 111.5 -120.5t158.5 -44.5t158.5 44.5
t111.5 120.5q6 13 1.5 27t-17 20.5t-26.5 2t-21 -17.5q-30 -58 -85.5 -92.5t-121.5 -34.5t-122 34.5t-86 92.5q-6 13 -20 17.5t-27 -2t-17.5 -20.5t2.5 -27zM681.5 388q25.5 0 43.5 27.5t18 66t-18 66t-43.5 27.5t-43.5 -27.5t-18 -66t18 -66t43.5 -27.5zM342.5 388
q25.5 0 43.5 27.5t18 66t-18 66t-43.5 27.5t-43.5 -27.5t-18 -66t18 -66t43.5 -27.5z" />
    <glyph glyph-name="uniE640" unicode="&#xe640;" horiz-adv-x="1131" 
d="M564 778q47 45 49 47q54 43 119.5 60t127.5 5.5t116.5 -43t93 -87t50.5 -123.5q31 -169 -97 -291q-10 -11 -11 -11q-296 -298 -444 -446q-14 -14 -29 -14q-22 1 -31 20q-9 20 5 37q1 2 5 6q365 367 447 449q34 34 43 47q40 53 46.5 117.5t-16 119.5t-71.5 96.5t-114 52.5
q-137 23 -231 -84q-24 -28 -53 -29q-36 -2 -61 28q-38 46 -94 70q-54 25 -110.5 19t-103.5 -30.5t-80.5 -71.5t-42.5 -104q-20 -123 69 -214l72 -72q47 -47 56 -55q49 -50 128 -130q24 -24 4 -48q-9 -13 -24.5 -13.5t-27.5 10.5q-3 3 -47 48q-170 171 -193 194
q-43 42 -61 69q-44 69 -49 149t24 148t90.5 119t141.5 66q178 31 301 -107q0 -1 3 -4z" />
    <glyph glyph-name="uniE641" unicode="&#xe641;" horiz-adv-x="1263" 
d="M610 805h416q43 0 71.5 -28.5t28.5 -71.5v-640q0 -44 -28.5 -72t-71.5 -28h-833q-38 0 -65 22t-34 59q-1 7 -1 19v639q0 44 28 72.5t72 28.5h417zM609 740h-416q-17 0 -26.5 -9t-9.5 -26v-641q0 -6 1 -10q7 -25 36 -25h830q37 0 37 37v636q0 38 -38 38h-414zM617 331
q-66 1 -101 16q-14 6 -26 14q-33 23 -70 49.5t-81.5 58.5t-69.5 50q-18 13 -15 33q4 20 24 25q14 4 30 -6q25 -19 159 -114q44 -32 47 -34q26 -21 60 -25q56 -7 98 6q10 3 20 10q84 60 220 157q18 13 36 4q16 -9 17 -26.5t-14 -29.5q-5 -3 -95 -67q-109 -78 -122 -87
q-33 -24 -76 -30q-3 -1 -41 -4z" />
    <glyph glyph-name="uniE642" unicode="&#xe642;" horiz-adv-x="1025" 
d="M1022 357q0 -105 -51.5 -204.5t-145.5 -171.5t-209 -96q-125 -26 -245.5 8.5t-211.5 121t-132 207.5q-49 145 -9.5 294t153.5 250q111 98 253 122q179 31 339 -59q12 -7 16 -19.5t-2.5 -24.5t-19.5 -15.5t-25 3.5q-72 41 -147 53q-198 31 -353 -92q-135 -107 -162 -275
q-33 -209 106 -369q96 -112 246 -143q138 -29 269 29t203 179q73 123 62 266q-7 94 -53 178q-4 8 -5 9q-6 12 -2 24t15 18q12 7 24 3.5t19 -15.5q23 -38 38 -83q30 -83 30 -198zM645 373q-5 3 -5 11t5 11l-221 -147q1 1 4 1q6 1 12 -2.5t9 -8.5q1 -3 1 -4v300q0 -1 -1 -4
q-3 -6 -9 -9t-12 -2q-3 0 -4 1zM679 424l-221 148q-24 16 -47 4t-23 -42v-300q0 -30 23 -42t47 4l221 148q23 15 23 40t-23 40z" />
    <glyph glyph-name="uniE643" unicode="&#xe643;" 
d="M852 99h-9h-77q-23 0 -30 21q-8 23 10 35q10 7 21 7q59 1 157 0q14 0 23.5 -9t9.5 -24v-156q0 -14 -9 -23.5t-23 -9.5q-13 0 -22.5 9t-9.5 24v66v9l-6 -6q-113 -122 -268 -154q-249 -51 -442 114q-130 111 -163 279q-49 246 113 436q114 135 290 168q118 22 231.5 -9.5
t201 -110t133.5 -189.5q37 -90 37 -190q0 -13 -7.5 -22t-19.5 -10.5t-22 5t-13 18.5q-1 4 -1 13q-2 136 -78 246.5t-202 161.5q-74 30 -152.5 32.5t-149 -21.5t-131 -68t-104 -109.5t-61.5 -142.5q-29 -119 5.5 -233.5t121.5 -196t206 -107.5q254 -56 436 142l2 2q1 2 2 3z
" />
    <glyph glyph-name="uniE644" unicode="&#xe644;" 
d="M852 99h-9h-77q-23 0 -30 21q-8 23 10 35q10 7 21 7q59 1 157 0q14 0 23.5 -9t9.5 -24v-156q0 -14 -9 -23.5t-23 -9.5q-13 0 -22.5 9t-9.5 24v66v9l-6 -6q-113 -122 -268 -154q-249 -51 -442 114q-130 111 -163 279q-49 246 113 436q114 135 290 168q118 22 231.5 -9.5
t201 -110t133.5 -189.5q37 -90 37 -190q0 -13 -7.5 -22t-19.5 -10.5t-22 5t-13 18.5q-1 4 -1 13q-2 136 -78 246.5t-202 161.5q-74 30 -152.5 32.5t-149 -21.5t-131 -68t-104 -109.5t-61.5 -142.5q-29 -119 5.5 -233.5t121.5 -196t206 -107.5q254 -56 436 142l2 2q1 2 2 3z
M479 321v64h-7h-114q-9 0 -14 1q-12 3 -18 13t-4.5 22t10.5 20t22 8h103h9q-5 5 -5 6q-103 102 -129 128q-14 14 -10 32q4 17 21 22.5t30 -5.5l6 -6q24 -23 67 -66.5t60 -59.5q0 -1 5 -6q6 5 6 6q15 14 41 40l48 48l40 40q10 11 23 11.5t23 -9.5q9 -8 10 -20t-7 -22
q-2 -2 -6 -7q-25 -24 -69.5 -69t-56.5 -57l-7 -6h9h103q29 0 34 -27q2 -13 -6 -24t-20 -13h-11h-113h-8v-64h7h118q26 0 32 -23q4 -16 -5.5 -28t-25.5 -12h-118h-9v-9v-119q0 -20 -18 -28t-34 4q-11 10 -11 26v118v8h-8h-119q-23 0 -30.5 21t9.5 35q9 7 23 7h116h8z" />
    <glyph glyph-name="uniE645" unicode="&#xe645;" 
d="M684 -26h-342q-5 -18 -5 -19q-12 -39 -46.5 -62.5t-75.5 -19.5q-42 3 -72.5 31.5t-36.5 70.5q0 5 -5 7q-64 29 -64 96v577q0 88 58.5 155t145.5 79q16 3 35 3h474q87 0 153.5 -55.5t81.5 -141.5q3 -19 3 -40v-577q0 -33 -16.5 -58t-46.5 -38q-5 -2 -6 -7
q-5 -42 -37.5 -71.5t-74.5 -30.5q-44 -2 -78.5 25t-43.5 68q0 1 -1 8zM920 383l1 6v264q0 14 -2 26q-10 63 -57.5 104t-112.5 41h-473q-20 0 -37 -4q-59 -13 -96.5 -59t-37.5 -107v-265v-6h815zM853 43h8h24q16 0 26 9.5t10 25.5v231l-1 5h-815v-8v-122v-105q0 -17 10 -26.5
t26 -9.5q5 -1 13 -0.5t13 -0.5h6v-10q0 -43 1 -46q1 -19 15 -32t34 -14q19 0 34 12t17 31q0 3 1 50v9h476v-8v-42q0 -25 18 -40t42 -11q18 4 29.5 18t12.5 33v51zM513 688h-203q-15 0 -25 9.5t-10 24.5q0 14 9 23.5t23 10.5h6h399q7 0 10 -1q14 -2 22 -12.5t6 -24.5
q-1 -13 -10.5 -21.5t-22.5 -8.5h-176h-28zM751 246q28 0 48 -20t20 -48t-20.5 -48t-48.5 -19q-28 0 -47.5 20t-19.5 48t20 47.5t48 19.5zM275 246q29 0 48.5 -20t19.5 -48t-20 -48t-49 -19q-28 0 -47.5 19.5t-19.5 48.5q0 28 20 47.5t48 19.5z" />
    <glyph glyph-name="uniE646" unicode="&#xe646;" 
d="M73 552h883v8v158q0 38 -38 38h-65q-13 0 -22.5 9t-10.5 22q-1 12 6.5 22.5t19.5 13.5q4 1 10 1h64q45 0 74.5 -30t29.5 -74v-744q0 -44 -30 -73.5t-74 -29.5h-811q-45 0 -74.5 29.5t-29.5 74.5v522v221q0 40 24.5 68.5t63.5 34.5q5 1 38 1h43q14 0 24 -9.5t10 -24.5
q0 -14 -9.5 -24t-24.5 -10h-34h-32q-16 0 -25.5 -9.5t-10.5 -24.5v-165zM956 484h-884v-8v-497q0 -39 39 -39h806q39 0 39 39v497v8zM514 824h66q16 0 26 -10t10 -24.5t-10.5 -24t-25.5 -9.5h-134q-13 0 -22.5 9t-11 21.5t6 23t20.5 13.5q3 1 10 1h65zM752 790v-66
q0 -16 -9.5 -26t-24.5 -10t-24.5 10t-9.5 26v132q0 16 9.5 26t24 10t24.5 -10t10 -26v-66zM344 790v-67q0 -22 -19 -31q-18 -9 -34 2q-15 10 -15 27v138q1 14 10.5 23.5t24 9.5t24 -10t9.5 -25v-67z" />
    <glyph glyph-name="uniE647" unicode="&#xe647;" 
d="M4 383v395q0 37 17.5 64.5t49.5 40.5q21 8 41 8q302 1 799 0q45 0 76.5 -31t32.5 -75q1 -28 0 -75q0 -15 -10.5 -25.5t-25.5 -11t-25.5 10.5t-10.5 27v33v34q0 41 -42 41h-788q-42 0 -42 -42v-788q0 -42 42 -42h788q42 0 42 42v70q0 12 9 21.5t21 11.5q14 2 25 -4.5
t15 -19.5q2 -6 2 -9q0 -80 -1 -90q-4 -38 -34 -65.5t-68 -28.5h-8h-794q-72 0 -103 66q-9 19 -8 47v150v245zM894 347h-9h-405q-34 0 -40 29q-3 15 6 28t24 15h12h403h11q-1 2 -2 3l-3 3q-1 1 -2 1q-102 102 -111 112q-11 11 -12 25t9 25t24 12.5t26 -7.5l7 -7l174 -174
q29 -29 0 -58l-176 -176q-23 -23 -47 -7q-15 10 -17 26.5t11 30.5q10 10 75 74q6 7 43 43q-1 1 -1 2z" />
    <glyph glyph-name="uniE648" unicode="&#xe648;" 
d="M527 893q118 -1 235 -67q23 -13 16 -37q-3 -11 -12 -17.5t-20 -5.5q-8 1 -18 6q-71 39 -144 51q-183 28 -330.5 -76.5t-180.5 -282.5q-21 -116 17 -226t124.5 -187t202.5 -102q93 -21 180.5 -2t158.5 65t121 118.5t69 158.5q35 163 -46 312q-8 14 -6 24q3 22 25 26
q24 5 34 -15q29 -59 36 -79q48 -130 23 -265.5t-116 -240.5q-118 -136 -296 -168q-131 -23 -255 20t-212 140t-118 227q-31 135 9.5 264.5t140 222t234.5 123.5q55 13 128 13zM511 339q-1 -2 -11.5 -12t-15.5 -15l-77 -77q-14 -14 -31.5 -9t-22.5 23q-4 18 10 32
q19 19 98 97q0 1 5 6l-5 5l-51 51q-33 33 -47 48q-15 14 -9 32.5t26 21.5q15 3 28 -10l50 -50l47 -47q1 -1 5 -7l6 6l31 31l37 37q16 16 31 30q9 10 21.5 11t22.5 -8q11 -9 11.5 -22.5t-10.5 -24.5l-40 -40q-46 -46 -58 -59q-1 0 -7 -4l7 -7q94 -93 98 -98q14 -14 9.5 -31.5
t-22.5 -22.5t-33 10l-30 30l-36 36l-31 31q0 1 -6 6z" />
    <glyph glyph-name="uniE649" unicode="&#xe649;" horiz-adv-x="1034" 
d="M4 643q-1 109 88 183q50 42 86 58q31 14 58 11q43 -4 67 -40q16 -25 27 -52q15 -39 42.5 -111t37.5 -97q15 -38 -9 -69q-29 -38 -44 -53q-21 -23 -6 -53q21 -39 63 -89q54 -64 133 -109q4 -3 25 -11q11 -5 20 2q12 9 36 29q2 1 14 11t18 14q31 24 67 10q22 -9 97.5 -37.5
t116.5 -44.5q20 -8 40 -20q32 -20 43 -50t-1 -66q-9 -25 -21 -44q-19 -28 -50 -65q-9 -12 -23 -12.5t-25 8.5q-11 10 -11.5 24t9.5 26q27 34 42 55q8 12 15 33q7 20 -11 31q-19 11 -32 16q-39 15 -111 42.5t-99 38.5q-5 2 -10 -3q-44 -36 -54 -44q-36 -28 -72 -24
q-26 4 -55 20q-148 85 -225 230q-10 19 -14 46q-6 33 19 66q15 20 48 59q4 5 1 13q-9 25 -36.5 96t-42.5 110q-6 15 -17 34q-11 17 -30 11q-14 -5 -25 -11q-54 -31 -85 -70q-33 -39 -35 -94q-3 -58 23 -138q42 -127 136 -238q113 -135 231 -219q111 -79 240 -109
q4 -1 13 -2.5t12 -2.5q14 -3 21.5 -14.5t5.5 -25.5q-2 -13 -13 -21t-25 -6q-65 9 -150 45q-114 47 -221 141q-132 116 -212 229q-87 122 -120 264q-10 41 -10 89z" />
    <glyph glyph-name="uniE64A" unicode="&#xe64a;" 
d="M908 91q-23 6 -24 6q-33 12 -61 -8t-28 -55q1 -11 6 -24q9 -26 1 -48.5t-32 -36.5q-55 -31 -116 -48q-26 -7 -48 3.5t-33 35.5q-13 28 -40.5 37.5t-53.5 -5.5q-19 -11 -28 -33q-9 -21 -27.5 -32t-39.5 -8q-13 1 -42 11q-44 14 -87 39q-25 14 -33 36.5t2 48.5
q15 42 -15 72t-71 14q-26 -10 -49 -1.5t-37 32.5q-30 54 -47 115q-8 26 2.5 48.5t35.5 32.5q32 14 39 47q6 24 -5 44.5t-33 30.5q-31 14 -40 44q-5 17 0 35q17 62 49 118q13 24 36 32.5t49 -1.5q30 -12 57 3t33 47q3 17 -4 36q-10 26 -2 48.5t33 36.5q55 31 117 48
q24 7 46 -3.5t33 -34.5q15 -35 51 -40q23 -4 42 6.5t29 32.5q15 34 47 40q17 3 32 -1q60 -15 118 -48q24 -14 32 -36.5t-2 -48.5q-12 -32 5 -59.5t51 -31.5q13 -1 29 5q58 20 87 -32q30 -53 47 -112q8 -28 -2.5 -50t-36.5 -34q-31 -14 -38.5 -46.5t15.5 -57.5q9 -10 24 -17
q25 -12 35.5 -34t2.5 -49q-18 -63 -49 -117q-19 -32 -62 -33zM956 507q-14 52 -41 102q-2 3 -8 1q-38 -13 -76 -4q-58 13 -86 65t-7 108q2 7 -4 10q-5 2 -26 12t-33 15q-3 1 -40 13q-40 -82 -123 -82t-123 82q-55 -15 -104 -44q29 -86 -29 -144q-60 -59 -145 -29
q-29 -51 -43 -105q81 -39 81 -122q1 -83 -81 -123q15 -56 43 -105q83 29 141 -25q63 -59 33 -148q51 -29 104 -44q40 82 123 82t123 -82q55 16 104 44q-29 85 29.5 144t144.5 29q28 50 43 105q-82 40 -81 124q0 82 81 121zM512 615q43 0 84 -16q14 -5 19.5 -17.5t0.5 -25.5
t-17.5 -18.5t-26.5 0.5q-64 25 -126 -2.5t-87 -90.5q-17 -52 -6.5 -99t48.5 -82.5t89 -42.5q70 -9 124.5 35t61.5 114q3 37 -11 75q-5 13 0 25.5t17 17.5q13 6 25.5 0.5t18.5 -18.5q23 -57 15 -113q-22 -144 -156 -191q-51 -18 -101.5 -10.5t-92 32.5t-70.5 68t-37 94
q-14 95 43 172t152 91q1 0 33 2z" />
    <glyph glyph-name="uniE64B" unicode="&#xe64b;" horiz-adv-x="1255" 
d="M615 894q203 -3 348 -128q91 -78 198 -223q12 -17 71 -103q18 -24 18 -54.5t-17 -54.5q-65 -94 -99 -140q-72 -96 -144 -164q-111 -104 -233 -133q-292 -71 -504 145q-110 111 -219 272q-2 2 -7.5 10t-7.5 11.5t-6 10t-6 12t-3 12.5q-7 39 14 70q117 180 229 291
q114 115 246 148q33 8 55 11q19 3 67 7zM652 844q-135 0 -230 -47q-81 -40 -165 -129q-94 -100 -198 -257q-9 -14 -7.5 -30t12.5 -29q8 -9 9 -10q103 -154 215 -268q186 -190 442 -136q120 25 228 128q68 64 126 142q25 34 108 150q18 27 0 55q-61 87 -75 105
q-106 144 -192 216q-64 54 -135 82t-138 28zM921 385q1 -121 -85.5 -207.5t-207.5 -87.5q-122 0 -209.5 85.5t-88.5 207.5q-1 123 85.5 210.5t209.5 87.5q122 0 208.5 -86t87.5 -210zM626 139q101 0 173.5 72t72.5 174t-72 174.5t-173 72.5q-103 0 -175 -72t-72 -175
q-1 -102 71.5 -174t174.5 -72zM510 386h-47q-5 57 42 110t120 53v-48q-104 -11 -115 -115z" />
    <glyph glyph-name="uniE64C" unicode="&#xe64c;" 
d="M511 -125q-178 1 -316.5 111.5t-178.5 284.5q-31 133 8.5 261.5t137 221.5t229.5 124q194 46 370 -51q25 -14 18 -38q-4 -11 -13 -17.5t-20 -5.5q-8 1 -17 6q-72 40 -148 51q-182 27 -328 -77q-147 -106 -179 -283q-21 -116 16.5 -224.5t121 -184.5t195.5 -103
q116 -28 229 5t195 117t112 200q43 170 -43 328q-7 13 -6 22q2 24 25 28q23 5 34 -15q23 -39 38 -82q29 -83 29.5 -170t-27.5 -164.5t-77 -144t-121 -114.5t-158 -70q-61 -16 -126 -16zM448 299q5 8 6 8q29 30 105.5 106t117.5 118q15 15 32 11q18 -4 23.5 -21t-6.5 -30
q-1 -2 -5 -6l-247 -247q-26 -26 -52 0l-123 123q-13 13 -9 30.5t22 22.5t33 -9q15 -16 48 -48.5t50 -49.5z" />
    <glyph glyph-name="uniE64D" unicode="&#xe64d;" horiz-adv-x="1120" 
d="M3 644q0 21 13 33q129 120 292 174q153 50 312 38q274 -22 480 -211q25 -22 10 -47q-9 -15 -26 -17.5t-31 9.5q-69 57 -89 71q-141 97 -308 118q-334 41 -587 -185q-21 -18 -40 -13q-11 4 -18.5 12.5t-7.5 17.5zM559 -125q-90 -1 -154 63t-64 154t63.5 154t152.5 64
q91 0 155 -63t64.5 -153.5t-63 -154.5t-154.5 -64zM704 92q0 60 -42.5 103t-102.5 43t-102.5 -43t-42.5 -103t42.5 -102.5t102.5 -42.5t102.5 43t42.5 102zM558 601q213 -4 362 -151q17 -18 10 -39q-6 -21 -29 -25q-18 -3 -33 12q-41 42 -90 71q-112 65 -240 58
q-167 -8 -288 -128q-16 -16 -33 -13q-22 4 -29 24q-8 21 8 38q35 36 77 64q110 75 242 87q2 0 43 2z" />
    <glyph glyph-name="uniE64E" unicode="&#xe64e;" 
d="M512 867q-98 0 -187.5 -38.5t-154 -103t-103 -154t-38.5 -187.5t38.5 -187.5t103 -154t154 -103t187.5 -38.5t187.5 38.5t154 103t103 154t38.5 187.5t-38.5 187.5t-103 154t-154 103t-187.5 38.5zM774 523l-303 -354q-14 -16 -36 -16.5t-37 15.5l-147 157
q-13 15 -12.5 35t15 33.5t34.5 13t34 -15.5l106 -122l272 318q14 15 33.5 16.5t35 -11.5t17 -33.5t-11.5 -35.5z" />
    <glyph glyph-name="uniE64F" unicode="&#xe64f;" horiz-adv-x="1260" 
d="M609 833q177 -2 305 -113q87 -75 193 -223q23 -32 44 -65q15 -21 15.5 -48t-14.5 -48q-77 -108 -112 -153q-76 -99 -152 -157q-142 -107 -319 -89q-164 17 -284 142q-103 106 -191 239q-5 5 -7 8q-19 22 -22 50t13 52q104 160 207 262q101 100 221 129q30 7 52 10
q8 1 18 2t19.5 1.5t13.5 0.5zM935 383q1 86 -41.5 159.5t-115.5 116.5t-159 43q-133 1 -227 -92t-95 -226q0 -132 93.5 -225.5t226.5 -93.5q86 0 159.5 42.5t116 116t42.5 159.5zM616 166q-90 0 -153.5 64t-63.5 154t64 153.5t154 63.5t153.5 -64t63.5 -154q-1 -90 -64 -153
t-154 -64zM616 528q-56 4 -105 -45t-38 -98h56q9 78 87 87v56z" />
    <glyph glyph-name="uniE650" unicode="&#xe650;" 
d="M516 637h-414q-9 0 -13 1q-11 2 -17 11.5t-5 19.5q1 12 9 19.5t19 8.5h5h831q14 0 23 -7.5t10 -20.5q1 -12 -7 -21.5t-20 -10.5h-9h-412zM516 637zM515 367h-413q-9 0 -13 2q-11 2 -17 11t-5 20t9 18.5t19 8.5h7h828q8 0 14 -2q10 -3 15.5 -12t4.5 -19.5t-9 -18t-18 -7.5
q-3 -1 -10 -1h-412v0zM515 367zM351 98h-252q-25 0 -31 22q-4 14 4 25.5t23 12.5h8h497q9 0 15 -2q10 -3 15.5 -12t4.5 -20t-9 -18t-18 -8h-8h-249v0zM351 98z" />
    <glyph glyph-name="uniE651" unicode="&#xe651;" 
d="M510 760h362q31 0 54 -18t29 -48q2 -9 2 -19v-556q0 -36 -24.5 -60.5t-60.5 -24.5h-724q-36 0 -60.5 24.5t-24.5 60.5v556q0 37 24.5 61t61.5 24h113h134h114v0zM511 705h-207h-154q-16 0 -25 -11q-6 -7 -6 -22v-549v-7q1 -13 12 -21q7 -5 21 -5h660h59q12 0 20 7
q10 8 10 25v549q0 34 -33 34h-357v0zM511 705zM754 397h-56q-45 -1 -84 -34q-37 -30 -56 -43q-39 -27 -84 -33q-10 -1 -20 -1q-58 -1 -76 0q-31 1 -62 -16q-23 -13 -40 -32q-23 -25 -53 -56q-9 -8 -20 -8t-19.5 7.5t-9 19t7.5 19.5q51 54 70 72q45 41 103 48q8 1 19 1
q60 1 75 0q25 0 50 11q38 17 65 42q43 40 86 51q27 7 48 8h117q19 0 26 -17q7 -16 -5 -30q-8 -9 -22 -9h-60v0zM754 397zM343 593q23 0 39.5 -16.5t16 -39.5t-17 -39.5t-39.5 -16.5t-39 16.5t-16 39.5t16 39.5t40 16.5v0zM343 593z" />
    <glyph glyph-name="uniE652" unicode="&#xe652;" 
d="M854 709h-21q-21 0 -45 12t-37 29l-24 32q-13 17 -37 29t-45 12h-265q-21 0 -45 -12t-37 -29l-24 -32q-13 -17 -37 -29t-45 -12h-15q-46 0 -78.5 -32.5t-32.5 -79.5v-548q0 -46 32.5 -79t78.5 -33h677q46 0 79 33t33 79v548q0 46 -33 79t-79 33zM906 49
q0 -21 -15.5 -36.5t-36.5 -15.5h-677q-21 0 -36 15.5t-15 36.5v548q0 22 15 37t36 15h15q35 0 72 18.5t58 46.5l24 32q4 6 15.5 11.5t18.5 5.5h265q7 0 18.5 -5.5t15.5 -11.5l24 -32q21 -28 58 -46.5t72 -18.5h21q21 0 36.5 -15t15.5 -37v-548zM906 49zM625 323
q0 -47 -33.5 -80t-80.5 -33q-14 0 -24 -10.5t-10 -24.5t10 -24t24 -10q76 0 129 53.5t53 128.5q0 14 -10 24t-24 10t-24 -10t-10 -24zM625 323zM516 593q-112 0 -191 -79t-79 -191t79 -191t190.5 -79t191 79t79.5 191t-79.5 191t-190.5 79zM516 122q-84 0 -143 59t-59 142.5
t59 142.5t142.5 59t142.5 -59t59 -142.5t-59 -142.5t-142 -59zM516 122z" />
    <glyph glyph-name="uniE653" unicode="&#xe653;" 
d="M606.5 127q-13.5 0 -22.5 9.5t-9 22.5v352q0 13 9 22.5t22.5 9.5t23 -9.5t9.5 -22.5v-352q0 -13 -9.5 -22.5t-23 -9.5zM415 127q-13 0 -22.5 9.5t-9.5 22.5v352q0 13 9.5 22.5t22.5 9.5t22.5 -9.5t9.5 -22.5v-352q0 -13 -9.5 -22.5t-22.5 -9.5zM926 671h-159v64
q0 39 -28 67.5t-68 28.5h-320q-40 0 -68 -28.5t-28 -67.5v-64h-160q-13 0 -22.5 -9.5t-9.5 -23t9.5 -22.5t22.5 -9h831q14 0 23 9t9 22.5t-9 23t-23 9.5zM319 735q0 13 9.5 22.5t22.5 9.5h320q14 0 23 -9.5t9 -22.5v-64h-384v64zM735 -65h-448q-40 0 -68 28.5t-28 67.5v480
q0 14 9.5 23t22.5 9t22.5 -9t9.5 -23v-480q0 -13 9.5 -22.5t22.5 -9.5h448q13 0 22.5 9.5t9.5 22.5v479q0 13 9 22.5t22.5 9.5t23 -9.5t9.5 -22.5v-479q0 -39 -28.5 -67.5t-67.5 -28.5z" />
    <glyph glyph-name="uniE654" unicode="&#xe654;" 
d="M154 29v745q0 51 29.5 69t71.5 -7l606 -373q42 -25 42 -61.5t-42 -62.5l-606 -372q-42 -26 -71.5 -7.5t-29.5 69.5zM809 424q-6 -11 -6 -23t6 -21q0 -1 -151.5 91.5t-303.5 186.5l-151 93q-1 0 1 0h3q15 -2 29 7q13 8 17 19q1 -2 1 -3v-745q0 -3 -1 -3q-4 11 -17 18
q-14 9 -29 8h-4z" />
    <glyph glyph-name="uniE655" unicode="&#xe655;" 
d="M179 816q0 10 7.5 17.5t17.5 7.5h50q10 0 17.5 -7.5t7.5 -17.5v-846q0 -10 -7.5 -17.5t-17.5 -7.5h-50q-10 0 -17.5 7.5t-7.5 17.5v846zM776 816q0 10 7.5 17.5t18.5 7.5h49q10 0 17.5 -7.5t7.5 -17.5v-846q0 -10 -7.5 -17.5t-17.5 -7.5h-49q-11 0 -18.5 7.5t-7.5 17.5
v846z" />
  </font>
</defs>
</svg>
